<svg version="1.2" baseProfile="tiny-ps" xmlns="http://www.w3.org/2000/svg" viewBox="0 0 3840 2160" width="3840" height="2160">
	<title>19199776-ai</title>
	<defs>
		<linearGradient id="grd1" gradientUnits="userSpaceOnUse"  x1="1573.2" y1="1904.6" x2="1439.3" y2="1070.5">
			<stop offset="0" stop-color="#aa80f9"  />
			<stop offset="1" stop-color="#6165d7"  />
		</linearGradient>
		<linearGradient id="grd2" gradientUnits="userSpaceOnUse"  x1="3009.9" y1="1501.1" x2="2915.5" y2="912.9">
			<stop offset="0" stop-color="#aa80f9"  />
			<stop offset="1" stop-color="#6165d7"  />
		</linearGradient>
		<linearGradient id="grd3" gradientUnits="userSpaceOnUse"  x1="2766.8" y1="497.4" x2="3126.9" y2="497.4">
			<stop offset="0" stop-color="#444b8c"  />
			<stop offset="1" stop-color="#26264f"  />
		</linearGradient>
		<linearGradient id="grd4" gradientUnits="userSpaceOnUse"  x1="2162.2" y1="548.9" x2="2342.6" y2="548.9">
			<stop offset=".7" stop-color="#ff9085"  />
			<stop offset="1" stop-color="#fb6fbb"  />
		</linearGradient>
		<linearGradient id="grd5" gradientUnits="userSpaceOnUse"  x1="3061.8" y1="739.9" x2="2836.4" y2="1002.2">
			<stop offset="0" stop-color="#ff9085"  />
			<stop offset="1" stop-color="#fb6fbb"  />
		</linearGradient>
		<linearGradient id="grd6" gradientUnits="userSpaceOnUse"  x1="3070.7" y1="713.5" x2="2834.6" y2="988.3">
			<stop offset="0" stop-color="#ff9085"  />
			<stop offset="1" stop-color="#fb6fbb"  />
		</linearGradient>
		<linearGradient id="grd7" gradientUnits="userSpaceOnUse"  x1="2803.6" y1="683.1" x2="2643.5" y2="1271.6">
			<stop offset="0" stop-color="#ff9085"  />
			<stop offset="1" stop-color="#fb6fbb"  />
		</linearGradient>
		<linearGradient id="grd8" gradientUnits="userSpaceOnUse"  x1="2807.9" y1="666.2" x2="2639.7" y2="1284.4">
			<stop offset="0" stop-color="#ff9085"  />
			<stop offset="1" stop-color="#fb6fbb"  />
		</linearGradient>
		<linearGradient id="grd9" gradientUnits="userSpaceOnUse"  x1="2894.7" y1="851.2" x2="2929.1" y2="1687.8">
			<stop offset="0" stop-color="#ff9085"  />
			<stop offset="1" stop-color="#fb6fbb"  />
		</linearGradient>
		<linearGradient id="grd10" gradientUnits="userSpaceOnUse"  x1="2788.2" y1="849.4" x2="2822.9" y2="1694.3">
			<stop offset="0" stop-color="#ff9085"  />
			<stop offset="1" stop-color="#fb6fbb"  />
		</linearGradient>
		<linearGradient id="grd11" gradientUnits="userSpaceOnUse"  x1="1863.6" y1="1023.6" x2="2096.6" y2="1023.6">
			<stop offset="0" stop-color="#ffc444"  />
			<stop offset="1" stop-color="#f36f56"  />
		</linearGradient>
		<linearGradient id="grd12" gradientUnits="userSpaceOnUse"  x1="1863.6" y1="1023.6" x2="2096.6" y2="1023.6">
			<stop offset="0" stop-color="#ffc444"  />
			<stop offset="1" stop-color="#f36f56"  />
		</linearGradient>
		<linearGradient id="grd13" gradientUnits="userSpaceOnUse"  x1="2442.2" y1="1056.3" x2="2209.6" y2="1002.6">
			<stop offset="0" stop-color="#26264f"  />
			<stop offset="1" stop-color="#444b8c"  />
		</linearGradient>
		<linearGradient id="grd14" gradientUnits="userSpaceOnUse"  x1="2435.1" y1="1058.6" x2="2207.6" y2="1006">
			<stop offset="0" stop-color="#444b8c"  />
			<stop offset="1" stop-color="#26264f"  />
		</linearGradient>
		<linearGradient id="grd15" gradientUnits="userSpaceOnUse"  x1="2969.3" y1="1027.5" x2="3411" y2="1705.5">
			<stop offset="0" stop-color="#311944"  />
			<stop offset="1" stop-color="#893976"  />
		</linearGradient>
		<linearGradient id="grd16" gradientUnits="userSpaceOnUse"  x1="2209.4" y1="1289.4" x2="2207.8" y2="1311.9">
			<stop offset="0" stop-color="#f36f56"  />
			<stop offset="1" stop-color="#ffc444"  />
		</linearGradient>
		<linearGradient id="grd17" gradientUnits="userSpaceOnUse"  x1="2179.4" y1="1333" x2="2180.3" y2="1304.2">
			<stop offset="0" stop-color="#26264f"  />
			<stop offset="1" stop-color="#444b8c"  />
		</linearGradient>
		<linearGradient id="grd18" gradientUnits="userSpaceOnUse"  x1="2151" y1="1291.3" x2="2153.3" y2="1377.1">
			<stop offset="0" stop-color="#f36f56"  />
			<stop offset="1" stop-color="#ffc444"  />
		</linearGradient>
		<linearGradient id="grd19" gradientUnits="userSpaceOnUse"  x1="2158.2" y1="1310.9" x2="2183.2" y2="1326.2">
			<stop offset="0" stop-color="#f36f56"  />
			<stop offset="1" stop-color="#ffc444"  />
		</linearGradient>
		<linearGradient id="grd20" gradientUnits="userSpaceOnUse"  x1="2281.5" y1="1310.8" x2="2277.1" y2="1325">
			<stop offset="0" stop-color="#f36f56"  />
			<stop offset="1" stop-color="#ffc444"  />
		</linearGradient>
		<linearGradient id="grd21" gradientUnits="userSpaceOnUse"  x1="2171.7" y1="1672.5" x2="2158" y2="1624.8">
			<stop offset="0" stop-color="#444b8c"  />
			<stop offset="1" stop-color="#26264f"  />
		</linearGradient>
		<linearGradient id="grd22" gradientUnits="userSpaceOnUse"  x1="2165" y1="1658.7" x2="2166" y2="1584.8">
			<stop offset="0" stop-color="#ffc444"  />
			<stop offset="1" stop-color="#f36f56"  />
		</linearGradient>
		<linearGradient id="grd23" gradientUnits="userSpaceOnUse"  x1="2193.8" y1="1658.8" x2="2194.9" y2="1574.5">
			<stop offset="0" stop-color="#ffc444"  />
			<stop offset="1" stop-color="#f36f56"  />
		</linearGradient>
		<linearGradient id="grd24" gradientUnits="userSpaceOnUse"  x1="2196.9" y1="1664.2" x2="2182.4" y2="1614.1">
			<stop offset="0" stop-color="#444b8c"  />
			<stop offset="1" stop-color="#26264f"  />
		</linearGradient>
		<linearGradient id="grd25" gradientUnits="userSpaceOnUse"  x1="2190.1" y1="1481.1" x2="2180" y2="1654.3">
			<stop offset="0" stop-color="#aa80f9"  />
			<stop offset="1" stop-color="#6165d7"  />
		</linearGradient>
		<linearGradient id="grd26" gradientUnits="userSpaceOnUse"  x1="2190.1" y1="1481.1" x2="2180" y2="1654.3">
			<stop offset="0" stop-color="#aa80f9"  />
			<stop offset="1" stop-color="#6165d7"  />
		</linearGradient>
		<linearGradient id="grd27" gradientUnits="userSpaceOnUse"  x1="2290.7" y1="1651.3" x2="2130.3" y2="1641.8">
			<stop offset="0" stop-color="#aa80f9"  />
			<stop offset="1" stop-color="#6165d7"  />
		</linearGradient>
		<linearGradient id="grd28" gradientUnits="userSpaceOnUse"  x1="2194.8" y1="1357.2" x2="2164.7" y2="1514">
			<stop offset="0" stop-color="#6165d7"  />
			<stop offset="1" stop-color="#aa80f9"  />
		</linearGradient>
		<linearGradient id="grd29" gradientUnits="userSpaceOnUse"  x1="3208.9" y1="847.2" x2="3290.7" y2="847.2">
			<stop offset="0" stop-color="#aa80f9"  />
			<stop offset="1" stop-color="#6165d7"  />
		</linearGradient>
		<linearGradient id="grd30" gradientUnits="userSpaceOnUse"  x1="2905.5" y1="841.3" x2="3291" y2="841.3">
			<stop offset="0" stop-color="#aa80f9"  />
			<stop offset="1" stop-color="#6165d7"  />
		</linearGradient>
		<linearGradient id="grd31" gradientUnits="userSpaceOnUse"  x1="2987.5" y1="841.3" x2="3062.1" y2="841.3">
			<stop offset="0" stop-color="#444b8c"  />
			<stop offset="1" stop-color="#26264f"  />
		</linearGradient>
		<linearGradient id="grd32" gradientUnits="userSpaceOnUse"  x1="2949.3" y1="1151.4" x2="3210.3" y2="1151.4">
			<stop offset="0" stop-color="#444b8c"  />
			<stop offset="1" stop-color="#26264f"  />
		</linearGradient>
		<linearGradient id="grd33" gradientUnits="userSpaceOnUse"  x1="3224.1" y1="1137.1" x2="3397.7" y2="1137.1">
			<stop offset="0" stop-color="#444b8c"  />
			<stop offset="1" stop-color="#26264f"  />
		</linearGradient>
		<linearGradient id="grd34" gradientUnits="userSpaceOnUse"  x1="3206.8" y1="856.9" x2="3295.5" y2="813.3">
			<stop offset="0" stop-color="#444b8c"  />
			<stop offset="1" stop-color="#26264f"  />
		</linearGradient>
		<linearGradient id="grd35" gradientUnits="userSpaceOnUse"  x1="3213.8" y1="861.1" x2="3228.4" y2="858.1">
			<stop offset="0" stop-color="#444b8c"  />
			<stop offset="1" stop-color="#26264f"  />
		</linearGradient>
		<linearGradient id="grd36" gradientUnits="userSpaceOnUse"  x1="1872.3" y1="1543.9" x2="1907.2" y2="1769.7">
			<stop offset="0" stop-color="#d8dee8"  />
			<stop offset="1" stop-color="#97a6b7"  />
		</linearGradient>
		<linearGradient id="grd37" gradientUnits="userSpaceOnUse"  x1="1704.5" y1="1501.3" x2="1940.8" y2="1396.2">
			<stop offset="0" stop-color="#d8dee8"  />
			<stop offset="1" stop-color="#97a6b7"  />
		</linearGradient>
		<linearGradient id="grd38" gradientUnits="userSpaceOnUse"  x1="1836" y1="1467.2" x2="2015.6" y2="1467.2">
			<stop offset="0" stop-color="#d8dee8"  />
			<stop offset="1" stop-color="#97a6b7"  />
		</linearGradient>
		<linearGradient id="grd39" gradientUnits="userSpaceOnUse"  x1="2876" y1="1655.4" x2="2863.9" y2="1655.4">
			<stop offset="0" stop-color="#444b8c"  />
			<stop offset="1" stop-color="#26264f"  />
		</linearGradient>
		<linearGradient id="grd40" gradientUnits="userSpaceOnUse"  x1="2873.4" y1="1680.5" x2="2878.6" y2="1638.3">
			<stop offset="0" stop-color="#ffc444"  />
			<stop offset="1" stop-color="#f36f56"  />
		</linearGradient>
		<linearGradient id="grd41" gradientUnits="userSpaceOnUse"  x1="2820.5" y1="1676.9" x2="2805.9" y2="1676.9">
			<stop offset="0" stop-color="#444b8c"  />
			<stop offset="1" stop-color="#26264f"  />
		</linearGradient>
		<linearGradient id="grd42" gradientUnits="userSpaceOnUse"  x1="2824" y1="1683.9" x2="2837.6" y2="1637.3">
			<stop offset="0" stop-color="#ffc444"  />
			<stop offset="1" stop-color="#f36f56"  />
		</linearGradient>
		<linearGradient id="grd43" gradientUnits="userSpaceOnUse"  x1="2875.1" y1="1500" x2="2847.3" y2="1500.5">
			<stop offset="0" stop-color="#aa80f9"  />
			<stop offset="1" stop-color="#6165d7"  />
		</linearGradient>
		<linearGradient id="grd44" gradientUnits="userSpaceOnUse"  x1="2774.5" y1="1639" x2="2823.4" y2="1676.8">
			<stop offset="0" stop-color="#aa80f9"  />
			<stop offset="1" stop-color="#6165d7"  />
		</linearGradient>
		<linearGradient id="grd45" gradientUnits="userSpaceOnUse"  x1="2855.9" y1="1427.1" x2="2761.6" y2="1366.8">
			<stop offset="0" stop-color="#444b8c"  />
			<stop offset="1" stop-color="#26264f"  />
		</linearGradient>
		<linearGradient id="grd46" gradientUnits="userSpaceOnUse"  x1="2808.1" y1="1353.4" x2="2772.6" y2="1353.4">
			<stop offset="0" stop-color="#aa80f9"  />
			<stop offset="1" stop-color="#6165d7"  />
		</linearGradient>
		<linearGradient id="grd47" gradientUnits="userSpaceOnUse"  x1="2806.6" y1="1386.6" x2="2794.8" y2="1315.6">
			<stop offset="0" stop-color="#ffc444"  />
			<stop offset="1" stop-color="#f36f56"  />
		</linearGradient>
		<linearGradient id="grd48" gradientUnits="userSpaceOnUse"  x1="2940.9" y1="1370.2" x2="2642.4" y2="1370.2">
			<stop offset="0" stop-color="#aa80f9"  />
			<stop offset="1" stop-color="#6165d7"  />
		</linearGradient>
		<linearGradient id="grd49" gradientUnits="userSpaceOnUse"  x1="2778" y1="1331.9" x2="2762.8" y2="1391.4">
			<stop offset="0" stop-color="#ffc444"  />
			<stop offset="1" stop-color="#f36f56"  />
		</linearGradient>
		<linearGradient id="grd50" gradientUnits="userSpaceOnUse"  x1="2658.9" y1="1666" x2="2681.8" y2="1667.1">
			<stop offset="0" stop-color="#444b8c"  />
			<stop offset="1" stop-color="#26264f"  />
		</linearGradient>
		<linearGradient id="grd51" gradientUnits="userSpaceOnUse"  x1="2686.6" y1="1658.6" x2="2674.2" y2="1678.9">
			<stop offset="0" stop-color="#ffc444"  />
			<stop offset="1" stop-color="#f36f56"  />
		</linearGradient>
		<linearGradient id="grd52" gradientUnits="userSpaceOnUse"  x1="2593.4" y1="1663.8" x2="2641.5" y2="1491.5">
			<stop offset="0" stop-color="#444b8c"  />
			<stop offset="1" stop-color="#26264f"  />
		</linearGradient>
		<linearGradient id="grd53" gradientUnits="userSpaceOnUse"  x1="2682.4" y1="1679" x2="2713.4" y2="1679">
			<stop offset="0" stop-color="#444b8c"  />
			<stop offset="1" stop-color="#26264f"  />
		</linearGradient>
		<linearGradient id="grd54" gradientUnits="userSpaceOnUse"  x1="2691.1" y1="1682.6" x2="2702.6" y2="1658.7">
			<stop offset="0" stop-color="#ffc444"  />
			<stop offset="1" stop-color="#f36f56"  />
		</linearGradient>
		<linearGradient id="grd55" gradientUnits="userSpaceOnUse"  x1="2597.4" y1="1663.4" x2="2644.5" y2="1494.4">
			<stop offset="0" stop-color="#aa80f9"  />
			<stop offset="1" stop-color="#6165d7"  />
		</linearGradient>
		<linearGradient id="grd56" gradientUnits="userSpaceOnUse"  x1="2626" y1="1559.1" x2="2695.1" y2="1450.1">
			<stop offset="0" stop-color="#444b8c"  />
			<stop offset="1" stop-color="#26264f"  />
		</linearGradient>
		<linearGradient id="grd57" gradientUnits="userSpaceOnUse"  x1="2647.3" y1="1568.7" x2="2713.4" y2="1464.4">
			<stop offset="0" stop-color="#aa80f9"  />
			<stop offset="1" stop-color="#6165d7"  />
		</linearGradient>
		<linearGradient id="grd58" gradientUnits="userSpaceOnUse"  x1="2632.1" y1="1517.8" x2="2602.9" y2="1399.3">
			<stop offset="0" stop-color="#6165d7"  />
			<stop offset="1" stop-color="#aa80f9"  />
		</linearGradient>
		<linearGradient id="grd59" gradientUnits="userSpaceOnUse"  x1="2687.4" y1="1368.6" x2="2672.5" y2="1337.5">
			<stop offset="0" stop-color="#ffc444"  />
			<stop offset="1" stop-color="#f36f56"  />
		</linearGradient>
		<linearGradient id="grd60" gradientUnits="userSpaceOnUse"  x1="2683.7" y1="1380" x2="2647.4" y2="1351">
			<stop offset="0" stop-color="#311944"  />
			<stop offset="1" stop-color="#6b3976"  />
		</linearGradient>
		<linearGradient id="grd61" gradientUnits="userSpaceOnUse"  x1="2653.1" y1="1354.5" x2="2679.2" y2="1405.5">
			<stop offset="0" stop-color="#ffc444"  />
			<stop offset="1" stop-color="#f36f56"  />
		</linearGradient>
		<linearGradient id="grd62" gradientUnits="userSpaceOnUse"  x1="2691.8" y1="1512.3" x2="2660.6" y2="1386.2">
			<stop offset="0" stop-color="#6165d7"  />
			<stop offset="1" stop-color="#aa80f9"  />
		</linearGradient>
		<linearGradient id="grd63" gradientUnits="userSpaceOnUse"  x1="2677.9" y1="1425.2" x2="2678.9" y2="1398.4">
			<stop offset="0" stop-color="#ffc444"  />
			<stop offset="1" stop-color="#f36f56"  />
		</linearGradient>
		<linearGradient id="grd64" gradientUnits="userSpaceOnUse"  x1="2698.7" y1="1388.6" x2="2680.3" y2="1453.5">
			<stop offset="0" stop-color="#ffc444"  />
			<stop offset="1" stop-color="#f36f56"  />
		</linearGradient>
		<linearGradient id="grd65" gradientUnits="userSpaceOnUse"  x1="2720.1" y1="1513.9" x2="2691.6" y2="1398.3">
			<stop offset="0" stop-color="#6165d7"  />
			<stop offset="1" stop-color="#aa80f9"  />
		</linearGradient>
		<linearGradient id="grd66" gradientUnits="userSpaceOnUse"  x1="2632.6" y1="1521.6" x2="2606.3" y2="1415.3">
			<stop offset="0" stop-color="#6165d7"  />
			<stop offset="1" stop-color="#aa80f9"  />
		</linearGradient>
		<linearGradient id="grd67" gradientUnits="userSpaceOnUse"  x1="2756.3" y1="1378.8" x2="2765.1" y2="1421.8">
			<stop offset="0" stop-color="#ffc444"  />
			<stop offset="1" stop-color="#f36f56"  />
		</linearGradient>
		<linearGradient id="grd68" gradientUnits="userSpaceOnUse"  x1="2089.8" y1="723.8" x2="2050" y2="818.6">
			<stop offset="0" stop-color="#ffc444"  />
			<stop offset="1" stop-color="#f36f56"  />
		</linearGradient>
		<linearGradient id="grd69" gradientUnits="userSpaceOnUse"  x1="2095.3" y1="701.7" x2="2007.3" y2="698.2">
			<stop offset="0" stop-color="#aa80f9"  />
			<stop offset="1" stop-color="#6165d7"  />
		</linearGradient>
		<linearGradient id="grd70" gradientUnits="userSpaceOnUse"  x1="1969.7" y1="973.5" x2="1951.5" y2="973.3">
			<stop offset="0" stop-color="#444b8c"  />
			<stop offset="1" stop-color="#26264f"  />
		</linearGradient>
		<linearGradient id="grd71" gradientUnits="userSpaceOnUse"  x1="1964.3" y1="976.1" x2="1955.4" y2="960.9">
			<stop offset="0" stop-color="#ffc444"  />
			<stop offset="1" stop-color="#f36f56"  />
		</linearGradient>
		<linearGradient id="grd72" gradientUnits="userSpaceOnUse"  x1="2035.4" y1="968.1" x2="2016.4" y2="972.5">
			<stop offset="0" stop-color="#444b8c"  />
			<stop offset="1" stop-color="#26264f"  />
		</linearGradient>
		<linearGradient id="grd73" gradientUnits="userSpaceOnUse"  x1="2029.4" y1="973.6" x2="2019.1" y2="958.9">
			<stop offset="0" stop-color="#ffc444"  />
			<stop offset="1" stop-color="#f36f56"  />
		</linearGradient>
		<linearGradient id="grd74" gradientUnits="userSpaceOnUse"  x1="1997.6" y1="955.8" x2="1949.4" y2="834.3">
			<stop offset="0" stop-color="#aa80f9"  />
			<stop offset="1" stop-color="#6165d7"  />
		</linearGradient>
		<linearGradient id="grd75" gradientUnits="userSpaceOnUse"  x1="1951.9" y1="972.6" x2="1893.8" y2="866.3">
			<stop offset="0" stop-color="#aa80f9"  />
			<stop offset="1" stop-color="#6165d7"  />
		</linearGradient>
		<linearGradient id="grd76" gradientUnits="userSpaceOnUse"  x1="1941.4" y1="667.5" x2="2012.2" y2="670.3">
			<stop offset="0" stop-color="#aa80f9"  />
			<stop offset="1" stop-color="#6165d7"  />
		</linearGradient>
		<linearGradient id="grd77" gradientUnits="userSpaceOnUse"  x1="1991.2" y1="601.6" x2="2067.1" y2="793.6">
			<stop offset="0" stop-color="#aa80f9"  />
			<stop offset="1" stop-color="#6165d7"  />
		</linearGradient>
		<linearGradient id="grd78" gradientUnits="userSpaceOnUse"  x1="1925.9" y1="670.7" x2="1977.3" y2="672.7">
			<stop offset="0" stop-color="#aa80f9"  />
			<stop offset="1" stop-color="#6165d7"  />
		</linearGradient>
		<linearGradient id="grd79" gradientUnits="userSpaceOnUse"  x1="1948.2" y1="684.2" x2="1973.3" y2="636.7">
			<stop offset="0" stop-color="#ffc444"  />
			<stop offset="1" stop-color="#f36f56"  />
		</linearGradient>
		<linearGradient id="grd80" gradientUnits="userSpaceOnUse"  x1="1978.3" y1="683.9" x2="1993.4" y2="649.4">
			<stop offset="0" stop-color="#311944"  />
			<stop offset="1" stop-color="#6b3976"  />
		</linearGradient>
		<linearGradient id="grd81" gradientUnits="userSpaceOnUse"  x1="1991" y1="653.9" x2="1991.6" y2="704.9">
			<stop offset="0" stop-color="#ffc444"  />
			<stop offset="1" stop-color="#f36f56"  />
		</linearGradient>
		<linearGradient id="grd82" gradientUnits="userSpaceOnUse"  x1="1982.4" y1="684.6" x2="1997" y2="651.1">
			<stop offset="0" stop-color="#311944"  />
			<stop offset="1" stop-color="#6b3976"  />
		</linearGradient>
		<linearGradient id="grd83" gradientUnits="userSpaceOnUse"  x1="1981.8" y1="659.8" x2="1980.9" y2="665.3">
			<stop offset="0" stop-color="#ffc444"  />
			<stop offset="1" stop-color="#f36f56"  />
		</linearGradient>
		<linearGradient id="grd84" gradientUnits="userSpaceOnUse"  x1="2021.2" y1="825.2" x2="2017.5" y2="776.2">
			<stop offset="0" stop-color="#ff9085"  />
			<stop offset="1" stop-color="#fb6fbb"  />
		</linearGradient>
		<linearGradient id="grd85" gradientUnits="userSpaceOnUse"  x1="1948.1" y1="718.6" x2="1925.5" y2="828.8">
			<stop offset="0" stop-color="#ffc444"  />
			<stop offset="1" stop-color="#f36f56"  />
		</linearGradient>
		<linearGradient id="grd86" gradientUnits="userSpaceOnUse"  x1="2021.2" y1="825.3" x2="2017.6" y2="776.3">
			<stop offset="0" stop-color="#ff9085"  />
			<stop offset="1" stop-color="#fb6fbb"  />
		</linearGradient>
		<linearGradient id="grd87" gradientUnits="userSpaceOnUse"  x1="3018.5" y1="388.4" x2="6027.1" y2="2360.8">
			<stop offset="0" stop-color="#f36f56"  />
			<stop offset="1" stop-color="#ffc444"  />
		</linearGradient>
		<linearGradient id="grd88" gradientUnits="userSpaceOnUse"  x1="3230.4" y1="527" x2="3776.2" y2="884.8">
			<stop offset="0" stop-color="#ffc444"  />
			<stop offset="1" stop-color="#f36f56"  />
		</linearGradient>
		<linearGradient id="grd89" gradientUnits="userSpaceOnUse"  x1="3124.1" y1="717.2" x2="3857.3" y2="1197.8">
			<stop offset="0" stop-color="#ffc444"  />
			<stop offset="1" stop-color="#f36f56"  />
		</linearGradient>
		<linearGradient id="grd90" gradientUnits="userSpaceOnUse"  x1="3107" y1="827" x2="3147.1" y2="637.2">
			<stop offset="0" stop-color="#311944"  />
			<stop offset="1" stop-color="#893976"  />
		</linearGradient>
		<linearGradient id="grd91" gradientUnits="userSpaceOnUse"  x1="3152.5" y1="834.5" x2="3190.7" y2="653.9">
			<stop offset="0" stop-color="#311944"  />
			<stop offset="1" stop-color="#893976"  />
		</linearGradient>
		<linearGradient id="grd92" gradientUnits="userSpaceOnUse"  x1="3256.5" y1="856.9" x2="3293.8" y2="680.5">
			<stop offset="0" stop-color="#311944"  />
			<stop offset="1" stop-color="#893976"  />
		</linearGradient>
	</defs>
	<style>
		tspan { white-space:pre }
		.s0 { opacity: .3;mix-blend-mode: multiply;fill: url(#grd1) } 
		.s1 { opacity: .3;mix-blend-mode: multiply;fill: url(#grd2) } 
		.s2 { fill: #d8dee8 } 
		.s3 { fill: #ebeff2 } 
		.s4 { fill: #97a6b7 } 
		.s5 { opacity: .7;fill: #ffffff } 
		.s6 { fill: #ffffff } 
		.s7 { opacity: .3;mix-blend-mode: multiply;fill: #97a6b7 } 
		.s8 { fill: url(#grd3) } 
		.s9 { opacity: .5;mix-blend-mode: soft-light;fill: #ffffff } 
		.s10 { fill: url(#grd4) } 
		.s11 { fill: url(#grd5) } 
		.s12 { opacity: .3;mix-blend-mode: multiply;fill: url(#grd6) } 
		.s13 { fill: url(#grd7) } 
		.s14 { opacity: .3;mix-blend-mode: multiply;fill: url(#grd8) } 
		.s15 { fill: url(#grd9) } 
		.s16 { opacity: .3;mix-blend-mode: multiply;fill: url(#grd10) } 
		.s17 { mix-blend-mode: soft-light;fill: #ffffff } 
		.s18 { fill: url(#grd11) } 
		.s19 { fill: url(#grd12) } 
		.s20 { fill: url(#grd13) } 
		.s21 { fill: url(#grd14) } 
		.s22 { opacity: .3;mix-blend-mode: soft-light;fill: #f4f7fa } 
		.s23 { fill: url(#grd15) } 
		.s24 { fill: url(#grd16) } 
		.s25 { fill: url(#grd17) } 
		.s26 { fill: url(#grd18) } 
		.s27 { fill: url(#grd19) } 
		.s28 { fill: url(#grd20) } 
		.s29 { fill: url(#grd21) } 
		.s30 { fill: url(#grd22) } 
		.s31 { fill: url(#grd23) } 
		.s32 { fill: url(#grd24) } 
		.s33 { fill: url(#grd25) } 
		.s34 { opacity: .3;mix-blend-mode: multiply;fill: url(#grd26) } 
		.s35 { fill: url(#grd27) } 
		.s36 { opacity: .3;mix-blend-mode: multiply;fill: url(#grd28) } 
		.s37 { fill: url(#grd29) } 
		.s38 { fill: url(#grd30) } 
		.s39 { fill: url(#grd31) } 
		.s40 { fill: url(#grd32) } 
		.s41 { fill: url(#grd33) } 
		.s42 { fill: url(#grd34) } 
		.s43 { fill: #a2a7ae } 
		.s44 { fill: url(#grd35) } 
		.s45 { fill: url(#grd36) } 
		.s46 { opacity: .3;mix-blend-mode: multiply;fill: #d8dee8 } 
		.s47 { fill: url(#grd37) } 
		.s48 { fill: url(#grd38) } 
		.s49 { fill: url(#grd39) } 
		.s50 { fill: url(#grd40) } 
		.s51 { fill: url(#grd41) } 
		.s52 { fill: url(#grd42) } 
		.s53 { fill: url(#grd43) } 
		.s54 { fill: url(#grd44) } 
		.s55 { fill: url(#grd45) } 
		.s56 { fill: url(#grd46) } 
		.s57 { fill: url(#grd47) } 
		.s58 { fill: url(#grd48) } 
		.s59 { fill: url(#grd49) } 
		.s60 { fill: url(#grd50) } 
		.s61 { fill: url(#grd51) } 
		.s62 { fill: url(#grd52) } 
		.s63 { fill: url(#grd53) } 
		.s64 { fill: url(#grd54) } 
		.s65 { opacity: .3;mix-blend-mode: multiply;fill: url(#grd55) } 
		.s66 { fill: url(#grd56) } 
		.s67 { opacity: .3;mix-blend-mode: multiply;fill: url(#grd57) } 
		.s68 { fill: url(#grd58) } 
		.s69 { fill: url(#grd59) } 
		.s70 { fill: url(#grd60) } 
		.s71 { fill: url(#grd61) } 
		.s72 { opacity: .3;mix-blend-mode: multiply;fill: url(#grd62) } 
		.s73 { fill: url(#grd63) } 
		.s74 { fill: url(#grd64) } 
		.s75 { fill: url(#grd65) } 
		.s76 { fill: url(#grd66) } 
		.s77 { fill: url(#grd67) } 
		.s78 { fill: url(#grd68) } 
		.s79 { opacity: .1;mix-blend-mode: multiply;fill: url(#grd69) } 
		.s80 { fill: url(#grd70) } 
		.s81 { fill: url(#grd71) } 
		.s82 { fill: url(#grd72) } 
		.s83 { fill: url(#grd73) } 
		.s84 { fill: url(#grd74) } 
		.s85 { fill: url(#grd75) } 
		.s86 { fill: url(#grd76) } 
		.s87 { opacity: .1;mix-blend-mode: multiply;fill: url(#grd77) } 
		.s88 { opacity: .3;mix-blend-mode: multiply;fill: url(#grd78) } 
		.s89 { fill: url(#grd79) } 
		.s90 { fill: url(#grd80) } 
		.s91 { fill: url(#grd81) } 
		.s92 { fill: url(#grd82) } 
		.s93 { fill: url(#grd83) } 
		.s94 { fill: url(#grd84) } 
		.s95 { fill: url(#grd85) } 
		.s96 { opacity: .3;mix-blend-mode: multiply;fill: url(#grd86) } 
		.s97 { fill: url(#grd87) } 
		.s98 { fill: url(#grd88) } 
		.s99 { fill: url(#grd89) } 
		.s100 { fill: url(#grd90) } 
		.s101 { fill: url(#grd91) } 
		.s102 { fill: url(#grd92) } 
	</style>
	<g id="Illustration">
		<g id="&lt;Group&gt;">
			<path id="&lt;Path&gt;" class="s0" d="m1677.09 1330.38c-0.24 0.01-0.47 0.01-0.71 0c-3.18-0.19-5.75-2.58-6.23-5.81l-39.41-262.08l-40.47 192.9c-0.66 3.16-3.26 5.59-6.41 5.98c-3.17 0.4-6.12-1.34-7.31-4.28l-35.33-86.94l-20.58 42.08c-1.24 2.54-3.79 4.2-6.57 4.28l-42.17 1.22c-4.11 0.12-7.45-3.12-7.45-7.24c0-4.12 3.34-7.55 7.45-7.66l37.62-1.01l25.85-52.72c1.28-2.62 3.93-4.24 6.81-4.2c2.86 0.06 5.39 1.8 6.47 4.46l32.45 80.04l43.85-208.57c0.72-3.44 3.7-5.85 7.16-5.75c3.42 0.11 6.29 2.7 6.8 6.16l40.98 273.14l46.35-131.02c1-2.84 3.59-4.76 6.47-4.82c2.88-0.06 5.46 1.75 6.46 4.54l21.48 59.89l25.99-64.11c1.04-2.57 3.4-4.3 6.04-4.44c2.61-0.14 5.08 1.35 6.25 3.79l17.02 35.39l84.59-2.27l19.2-46.59c1.06-2.56 3.49-4.26 6.01-4.26c2.59-0.03 4.92 1.6 5.93 4.13l28.18 70.62l36.79-189.18c0.62-3.2 3.22-5.48 6.22-5.48c0.03 0 0.07 0 0.11 0c3.04 0.05 5.62 2.43 6.15 5.68l41.06 252.24l37.07-122.87c0.81-2.68 3.02-4.57 5.57-4.76c2.56-0.16 4.91 1.36 5.94 3.89l23.89 58.57l23.71-59.61c0.89-2.24 2.8-3.8 4.98-4.07c2.18-0.27 4.31 0.77 5.55 2.75l19.94 31.52l69.49-1.86l19.47-41.93c1.05-2.26 3.17-3.6 5.38-3.61c2.24 0.05 4.23 1.55 5.13 3.85l25.25 64.77l33.11-179.64c0.57-3.08 2.93-5.37 5.71-5.19c2.74 0.06 5.06 2.35 5.51 5.44l34.67 237.88l22.14-81.25c0.74-2.7 2.89-4.58 5.33-4.65l126.86-3.4c2.96-0.08 5.35 2.68 5.35 6.17c0 3.49-2.39 6.38-5.35 6.47l-122.78 3.55l-27.9 102.55c-0.79 2.89-3.2 4.88-5.77 4.77c-2.6-0.09-4.74-2.23-5.17-5.17l-33.67-230.62l-30.46 165.59c-0.52 2.81-2.56 4.97-5.06 5.35c-2.51 0.37-4.88-1.12-5.89-3.7l-27.74-70.99l-15.4 33.23c-1.02 2.2-3.02 3.61-5.19 3.67l-76.19 2.21c-1.98 0.06-3.83-0.97-4.96-2.75l-15.65-24.69l-24.82 62.55c-0.98 2.47-3.17 4.12-5.59 4.2c-2.42 0.08-4.62-1.41-5.6-3.82l-23.1-56.53l-39.69 131.84c-0.91 3.01-3.53 5.05-6.4 4.95c-2.86-0.1-5.22-2.31-5.72-5.37l-39.82-244.08l-34.1 175.68c-0.58 2.98-2.87 5.27-5.67 5.67c-2.79 0.41-5.45-1.21-6.55-3.96l-30.46-76.15l-14.78 35.93c-1.05 2.55-3.39 4.24-5.98 4.32l-93.01 2.69c-2.55 0.07-4.89-1.38-6.03-3.75l-12.42-25.75l-26.87 66.45c-1.1 2.72-3.65 4.55-6.45 4.55c-2.8 0.03-5.28-1.74-6.25-4.45l-21.06-58.59l-49.07 139.02c-1.02 2.9-3.66 4.89-6.57 5.02z" />
			<path id="&lt;Path&gt;" class="s1" d="m3083.74 1096.06c-0.17 0.01-0.33 0.01-0.5 0c-2.24-0.13-4.05-1.82-4.39-4.1l-27.79-184.82l-28.54 136.03c-0.47 2.23-2.3 3.94-4.52 4.22c-2.24 0.28-4.31-0.95-5.16-3.02l-24.92-61.31l-14.51 29.67c-0.88 1.79-2.67 2.96-4.63 3.02l-29.74 0.86c-2.9 0.08-5.25-2.2-5.25-5.11c0-2.91 2.35-5.32 5.25-5.4l26.53-0.71l18.23-37.18c0.9-1.85 2.77-2.99 4.8-2.96c2.02 0.04 3.8 1.27 4.56 3.15l22.88 56.44l30.92-147.08c0.51-2.42 2.61-4.12 5.05-4.06c2.41 0.07 4.43 1.9 4.8 4.35l28.9 192.62l32.69-92.4c0.71-2 2.53-3.36 4.57-3.4c2.03-0.04 3.85 1.24 4.56 3.2l15.15 42.24l18.33-45.21c0.73-1.81 2.4-3.03 4.26-3.13c1.84-0.1 3.58 0.95 4.41 2.67l12.01 24.96l59.65-1.6l13.54-32.85c0.74-1.81 2.46-3 4.24-3c1.83-0.02 3.47 1.13 4.18 2.91l19.88 49.8l25.94-133.41c0.44-2.25 2.27-3.86 4.39-3.86c0.02 0 0.05 0 0.07 0c2.15 0.04 3.96 1.72 4.34 4l28.96 177.88l26.14-86.65c0.57-1.89 2.13-3.22 3.93-3.35c1.81-0.11 3.46 0.96 4.19 2.75l16.84 41.3l16.72-42.04c0.63-1.58 1.97-2.68 3.51-2.87c1.54-0.19 3.04 0.55 3.92 1.94l14.06 22.23l49.01-1.31l13.73-29.57c0.74-1.59 2.24-2.54 3.8-2.55c1.58 0.03 2.98 1.09 3.62 2.71l17.81 45.67l23.35-126.69c0.4-2.17 2.07-3.79 4.03-3.66c1.94 0.05 3.57 1.66 3.88 3.84l24.45 167.76l15.62-57.3c0.52-1.91 2.04-3.23 3.76-3.28l89.46-2.4c2.08-0.06 3.77 1.89 3.77 4.35c0 2.46-1.69 4.5-3.77 4.56l-86.58 2.51l-19.67 72.32c-0.56 2.04-2.26 3.44-4.07 3.37c-1.83-0.07-3.34-1.57-3.64-3.65l-23.75-162.63l-21.48 116.78c-0.36 1.98-1.81 3.51-3.57 3.78c-1.77 0.26-3.44-0.79-4.15-2.61l-19.56-50.07l-10.86 23.44c-0.72 1.55-2.13 2.54-3.66 2.59l-53.73 1.56c-1.39 0.04-2.7-0.68-3.5-1.94l-11.04-17.41l-17.51 44.11c-0.69 1.74-2.24 2.91-3.94 2.96c-1.71 0.06-3.26-1-3.95-2.69l-16.29-39.87l-27.99 92.98c-0.64 2.12-2.49 3.56-4.51 3.49c-2.02-0.07-3.68-1.63-4.03-3.79l-28.08-172.13l-24.05 123.89c-0.41 2.1-2.03 3.72-4 4c-1.97 0.29-3.85-0.85-4.62-2.79l-21.48-53.7l-10.42 25.34c-0.74 1.8-2.39 2.99-4.22 3.05l-65.59 1.9c-1.8 0.05-3.45-0.97-4.25-2.64l-8.76-18.16l-18.95 46.86c-0.78 1.92-2.58 3.21-4.55 3.21c-1.98 0.02-3.72-1.23-4.41-3.14l-14.85-41.32l-34.61 98.04c-0.72 2.05-2.58 3.45-4.63 3.54z" />
			<path id="&lt;Path&gt;" class="s2" d="m1732.17 972.11c-0.32 0-0.63-0.02-0.95-0.05c-4.27-0.46-7.71-3.88-8.36-8.33l-53.07-361.54l-54.86 261.31c-0.9 4.3-4.44 7.45-8.72 7.76c-4.32 0.33-8.33-2.29-9.96-6.42l-48.3-122.55l-28.27 56.45c-1.71 3.42-5.21 5.51-9.04 5.4l-58.28-1.61c-5.71-0.16-10.34-4.92-10.34-10.64c0-5.72 4.63-10.21 10.34-10.04l52.02 1.61l35.55-70.73c1.76-3.5 5.4-5.51 9.34-5.22c3.92 0.33 7.39 2.95 8.86 6.71l44.32 112.84l59.52-282.53c0.98-4.64 5-7.65 9.68-7.17c4.62 0.48 8.49 4.31 9.19 9.11l55.12 376.67l61.9-174.98c1.34-3.77 4.77-6.18 8.61-6.03c3.83 0.15 7.26 2.82 8.58 6.69l28.47 82.92l34.31-84.8c1.37-3.39 4.47-5.54 7.95-5.51c3.44 0.03 6.68 2.23 8.23 5.63l22.35 49.13l110.16 3.41l24.8-60.89c1.36-3.34 4.5-5.41 7.74-5.21c3.34 0.18 6.34 2.53 7.64 6l36.19 96.47l47-248.95c0.79-4.19 4.1-6.98 7.93-6.71c0.04 0 0.09 0.01 0.13 0.01c3.87 0.35 7.15 3.75 7.82 8.11l52.04 337.84l46.68-159.85c1.01-3.47 3.79-5.79 6.99-5.85c3.21-0.01 6.15 2.18 7.45 5.6l29.88 78.97l29.55-76.67c1.11-2.88 3.48-4.78 6.2-4.97c2.71-0.19 5.35 1.35 6.9 4.04l24.72 42.87l85.58 2.65l23.82-53.18c1.28-2.86 3.87-4.45 6.57-4.29c2.73 0.24 5.16 2.34 6.25 5.4l30.72 86.04l40.11-230.38c0.68-3.93 3.54-6.7 6.9-6.22c3.31 0.32 6.1 3.49 6.64 7.53l41.7 310.06l26.52-103.29c0.88-3.43 3.46-5.7 6.37-5.61l150.08 4.65c3.46 0.11 6.26 3.8 6.26 8.24c0 4.45-2.8 7.97-6.26 7.88l-145.2-4.01l-33.38 130.36c-0.95 3.68-3.83 6.1-6.92 5.81c-3.12-0.27-5.69-3.16-6.2-6.98l-40.55-300.64l-36.86 212.35c-0.63 3.61-3.11 6.28-6.14 6.61c-3.04 0.31-5.93-1.78-7.15-5.2l-33.77-94.3l-18.82 42.16c-1.24 2.79-3.69 4.49-6.35 4.41l-93.82-2.59c-2.45-0.07-4.75-1.55-6.14-3.96l-19.42-33.57l-30.91 80.46c-1.22 3.19-3.96 5.21-6.98 5.15c-3.02-0.05-5.77-2.18-7-5.42l-28.93-76.21l-49.95 171.56c-1.14 3.92-4.45 6.48-8.08 6.16c-3.62-0.3-6.6-3.38-7.23-7.47l-50.51-326.97l-43.51 231.17c-0.74 3.93-3.68 6.83-7.26 7.16c-3.57 0.35-6.99-1.99-8.4-5.74l-39.14-103.99l-19.06 46.95c-1.36 3.34-4.38 5.43-7.73 5.34l-121.12-3.34c-3.35-0.09-6.42-2.23-7.92-5.51l-16.32-35.75l-35.44 87.9c-1.45 3.61-4.83 5.9-8.53 5.7c-3.71-0.17-6.99-2.73-8.27-6.48l-27.94-81.11l-65.48 185.74c-1.37 3.9-4.9 6.43-8.8 6.43z" />
			<path id="&lt;Path&gt;" class="s3" d="m3506.93 1391.63c1.4 12.82-147.78 32.72-146.54 66.18c0.42 11.18 17.31 15.5 47.27 34.27c25.95 16.26 100.75 63.15 100.45 106.36c-0.3 43.03-75.11 83.19-139.44 94.54c-80.37 14.18-116.64-18.31-187.9-27.18c-104.45-13.01-137.98 80.19-269.44 118.17c-268.68 77.64-525.1 9.92-607.41-11.82c-125.48-33.14-129.03-54.51-231.62-68.54c-142.5-19.48-193.99 13.79-356.88-4.73c-124.63-14.16-240.41-50.22-238.71-73.27c1.85-25.06 142.34-31.6 141.81-52c-0.34-13.16-58.85-12.11-61.45-28.36c-4.47-27.95 157.63-99.42 335.61-99.27c61.19 0.05 116.42 8.56 137.08 11.82c112.98 17.81 153.13 44.55 238.71 42.54c57.57-1.35 98.59-14.84 120.54-21.27c259.31-75.97 1114.31-120.57 1117.92-87.45z" />
			<path id="&lt;Path&gt;" class="s2" d="m2940.88 1591.35c-0.59 15.93-122.5 27.17-366.34 49.63c-15.89 1.46-128.61 11.71-282.43 18.91c-150.98 7.07-260.83 11.87-263.53-4.73c-2.41-14.85 82.21-39.51 88.63-41.36c68.71-19.77 121.79-18.95 187.9-18.91c112.69 0.07 219.19 0.14 219.8-7.09c0.88-10.27-212.3-29.82-211.53-44.91c0.52-10.19 98.54-15.1 187.9-14.18c205.91 2.13 440.59 36.02 439.61 62.63z" />
			<path id="&lt;Path&gt;" class="s2" d="m2953.88 1669.34c1.7 15.54-113.22 51.77-232.8 42.54c-56.49-4.36-121.1-19.4-120.54-30.73c0.69-13.84 98.59-19.17 137.08-21.27c52.42-2.86 214.27-8.72 216.26 9.45z" />
			<path id="&lt;Path&gt;" class="s2" d="m3168.95 1408.18c30.5 31.25 60.1 71.78 76.81 92.18c51.86 63.26 57.4 83.1 52 98.08c-3.65 10.13-13.18 20.47-22.45 20.09c-14.35-0.58-18.41-26.41-40.18-65c-2.34-4.15-22.12-38.75-53.18-70.9c-35.45-36.71-69.46-62.81-66.18-72.09c1.76-4.97 11.58-7.69 53.18-2.36z" />
			<path id="&lt;Path&gt;" class="s2" d="m2035.67 1486.17c29.87-3.37 86.31-9.4 92.18 7.09c5.9 16.59-38.64 58.01-88.63 76.81c-29.2 10.99-55.9 12.62-56.72 22.45c-1.01 12.01 38.18 17.08 39 31.91c0.94 17.13-49.79 38.72-101.63 44.91c-52.46 6.26-88.41-5.35-127.63-14.18c-139.08-31.3-232.42-7.97-233.98-21.27c-1.32-11.25 66.76-17.24 183.17-56.72c118.88-40.32 176.47-77.69 294.25-90.99z" />
			<g id="&lt;Group&gt;">
				<path id="&lt;Path&gt;" class="s4" d="m3280.53 641.03v732.34c0 12-9.82 22.7-21.99 23.89l-666.14 65.33c-15.48 1.52-35.58-2.28-35.58-21.18v-831.37c0-13.63 13.94-29.85 29.42-29.13l672.3 37.35c12.17 0.57 21.99 10.76 21.99 22.76z" />
				<path id="&lt;Path&gt;" class="s2" d="m3291.59 634.6v738.07c0 12.1-9.82 22.87-21.99 24.08l-673.63 66.58c-15.48 1.53-28.09-8.35-28.09-22.09v-837.87c0-13.73 12.61-24.27 28.09-23.54l673.63 31.82c12.17 0.57 21.99 10.84 21.99 22.94z" />
				<path id="&lt;Path&gt;" class="s5" d="m2595.97 1451.97c-8.35 0.81-15.16-4.55-15.16-11.95v-836.08c0-7.4 6.81-13.11 15.16-12.73l673.63 30.56c6.58 0.3 11.92 5.86 11.92 12.41v739.46c0 6.54-5.34 12.39-11.92 13.02l-673.63 65.32z" />
				<path id="&lt;Path&gt;" class="s6" d="m3226.18 1366.82l-576.16 53.31v-771.36l576.16 20.84v697.21z" />
				<path id="&lt;Path&gt;" class="s7" d="m2995.73 673.38l-230.26 2.77l5.16-49.87c0.39-6.48 5.27-11.8 11.69-12.75l39-5.76c4.59-0.68 8.55-3.59 10.55-7.78l4.23-8.82l102 6.05l57.63 76.15z" />
				<path id="&lt;Compound Path&gt;" fill-rule="evenodd" class="s8" d="m3127.37 685.82c0.71 3.65-2.54 7.31-6.38 7.19l-350.02-11.16c-4.34-0.14-6.79-4.24-4.8-8.03l24.32-46.35c3.04-5.8 9.53-9.5 16.14-9.22l40.36 1.74c17.96 0.77 34.88-11.36 39.36-28.15l10.37-38.82c1.91-7.17 9.09-12.26 16.65-11.83l12.47 0.72c6.52 0.37 13.17-2.85 16.97-8.7c1.36-2.09 2.19-4.44 2.56-6.81c2.45-15.97 17.78-28.03 34.22-26.95c16.31 1.07 27.56 14.68 25.3 30.45c-1.29 9.02 4.84 16.83 14.06 17.36l12.09 0.69c7.23 0.41 12.49 6.08 12.23 13.15l-1.42 38.24c-0.61 16.5 11.63 29.53 28.33 30.25l36.79 1.58c5.93 0.26 10.64 4.22 11.73 9.86l8.67 44.79zm-142.77-161.2c0.7-4.66-2.63-8.69-7.44-8.99c-4.82-0.3-9.3 3.25-10 7.92c-0.7 4.68 2.64 8.7 7.47 8.99c4.81 0.29 9.28-3.26 9.97-7.93z" />
				<path id="&lt;Compound Path&gt;" fill-rule="evenodd" class="s4" d="m3129.44 686.85c0.71 3.65-2.54 7.31-6.38 7.19l-350.02-11.16c-4.34-0.14-6.79-4.24-4.8-8.03l24.32-46.35c3.04-5.8 9.53-9.5 16.14-9.22l40.36 1.74c17.96 0.77 34.88-11.36 39.36-28.15l10.37-38.82c1.91-7.17 9.09-12.26 16.65-11.83l12.47 0.72c6.52 0.37 13.17-2.85 16.97-8.7c1.36-2.09 2.19-4.44 2.56-6.81c2.45-15.97 17.79-28.03 34.22-26.95c16.31 1.07 27.56 14.68 25.3 30.45c-1.29 9.02 4.84 16.83 14.06 17.36l12.09 0.69c7.23 0.41 12.49 6.08 12.23 13.15l-1.42 38.24c-0.61 16.5 11.63 29.53 28.33 30.25l36.79 1.58c5.93 0.26 10.64 4.22 11.73 9.86l8.67 44.79zm-142.77-161.2c0.7-4.66-2.63-8.69-7.44-8.99c-4.82-0.3-9.3 3.25-10 7.92c-0.7 4.68 2.64 8.7 7.47 8.99c4.81 0.29 9.27-3.26 9.97-7.93z" />
				<g id="&lt;Group&gt;">
					<path id="&lt;Path&gt;" class="s9" d="m3091.14 693.03l-318.09-10.15c-4.34-0.14-6.79-4.24-4.8-8.03l24.32-46.35c3.04-5.8 9.53-9.5 16.14-9.22l40.36 1.74c17.96 0.77 34.88-11.36 39.36-28.15l8.65-32.37c6.52 4.37 12.79 6.62 18.66 7.5c16.05 2.41 28.36-5.43 42.16 3.46c21.55 13.88 7.5 43.3 28.33 65.65c19.46 20.88 43.42 7.75 74.64 26.26c12.31 7.29 22.26 17.44 30.27 29.66z" />
				</g>
				<g id="&lt;Group&gt;">
					<g id="&lt;Group&gt;">
						<path id="&lt;Compound Path&gt;" fill-rule="evenodd" class="s2" d="m2782.72 1068.2l-58.98 1.91v-54.74l58.98-1.39v54.22zm-54.73-48.67v46.19l50.47-1.64v-45.74l-50.47 1.19z" />
						<path id="&lt;Path&gt;" class="s2" d="m3174.32 1055.51l-369.88 11.99v-54.03l369.88-8.74v50.77z" />
					</g>
					<g id="&lt;Group&gt;">
						<path id="&lt;Compound Path&gt;" fill-rule="evenodd" class="s2" d="m2782.72 1147.2l-58.98 2.67v-54.74l58.98-2.15v54.22zm-54.73-47.97v46.19l50.47-2.28v-45.74l-50.47 1.84z" />
						<path id="&lt;Path&gt;" class="s2" d="m3174.32 1129.48l-369.88 16.73v-54.03l369.88-13.48v50.77z" />
					</g>
					<g id="&lt;Group&gt;">
						<path id="&lt;Compound Path&gt;" fill-rule="evenodd" class="s2" d="m2782.72 1226.2l-58.98 3.42v-54.74l58.98-2.91v54.22zm-54.73-47.26v46.18l50.47-2.93v-45.74l-50.47 2.49z" />
						<path id="&lt;Path&gt;" class="s2" d="m3174.32 1203.46l-369.88 21.48v-54.03l369.88-18.22v50.77z" />
					</g>
					<g id="&lt;Group&gt;">
						<path id="&lt;Compound Path&gt;" fill-rule="evenodd" class="s2" d="m2782.72 1305.2l-58.98 4.18v-54.74l58.98-3.66v54.22zm-54.73-46.56v46.17l50.47-3.58v-45.73l-50.47 3.13z" />
						<path id="&lt;Path&gt;" class="s2" d="m3174.32 1277.44l-369.88 26.22v-54.03l369.88-22.96v50.77z" />
					</g>
					<path id="&lt;Compound Path&gt;" fill-rule="evenodd" class="s2" d="m2723.74 966.75c-0.56 0-1.09-0.22-1.49-0.61c-0.41-0.4-0.63-0.95-0.63-1.52v-255.47c0-0.57 0.23-1.12 0.64-1.52c0.41-0.4 0.97-0.64 1.54-0.6l234.55 6.01c1.15 0.03 2.07 0.97 2.07 2.13v245.83c0 1.16-0.93 2.11-2.09 2.13l-234.55 3.63c-0.01 0-0.02 0-0.03 0zm2.13-255.41v251.12l230.3-3.56v-241.67l-230.3-5.9zm232.42 249.66h0.01h-0.01z" />
					<path id="&lt;Path&gt;" class="s2" d="m3174.32 751.91l-179.2-3.62v-32.18l179.2 4.59v31.21z" />
					<path id="&lt;Path&gt;" class="s2" d="m3174.32 821.26l-179.2-1.47v-16.09l179.2 1.95v15.6z" />
					<path id="&lt;Path&gt;" class="s2" d="m3174.32 846.98l-179.2-0.67v-16.09l179.2 1.15v15.6z" />
					<path id="&lt;Path&gt;" class="s2" d="m3174.32 872.7l-179.2 0.13v-16.09l179.2 0.35v15.6z" />
					<g id="&lt;Group&gt;">
						<path id="&lt;Path&gt;" class="s4" d="m2809.61 815.6c-1.66-1.39-4.61-3.86-6.04-7.93c-1.99-5.67 0.93-8.89 0.4-15.01c-0.52-6.02-3.76-7.74-7.26-14.37c-2-3.79-9.22-17.45-3.64-28.63c5.01-10.02 19.47-16.34 29.38-13.28c8.32 2.57 8.46 10.23 17.58 11.94c7.5 1.41 9.99-3.3 17.47-1.14c2.64 0.76 6.11 3.57 13.04 9.17c5.36 4.33 8.06 6.54 9.06 8.69c2.65 5.73 0.37 11.77-0.79 14.82c-2.81 7.43-6.37 7.51-8.66 13.61c-3.17 8.41 2.13 12.12 0 17.82c-5.23 13.99-46.48 16.08-60.54 4.3z" />
						<path id="&lt;Path&gt;" class="s2" d="m2732.88 955.54v-97.96l34.15-4.73l145.86-1.36l36.9 5.82v95.19l-216.91 3.04z" />
						<g id="&lt;Group&gt;">
							<path id="&lt;Path&gt;" class="s6" d="m2848.59 790.36c1.69 15.04 3.37 30.08 5.06 45.1c0.46 4.07 3.93 7.27 8.26 7.63c17.09 1.4 35.86 8.8 52.76 10.17l-77.49 21.24l-68.37-19.88c18.44-2.47 31.87-7.64 45.4-11.5c3.47-0.99 5.97-3.79 6.4-7.15c1.17-9.31 2.34-18.62 3.52-27.93l24.47-17.68z" />
							<path id="&lt;Compound Path&gt;" fill-rule="evenodd" class="s2" d="m2837.17 876.63c-0.2 0-0.4-0.03-0.59-0.08l-68.37-19.88c-0.97-0.28-1.6-1.2-1.53-2.2c0.08-1 0.84-1.82 1.84-1.95c13.82-1.85 24.69-5.21 35.21-8.46c3.4-1.05 6.61-2.04 9.89-2.98c2.64-0.75 4.55-2.86 4.87-5.37l3.52-27.93c0.07-0.58 0.39-1.11 0.86-1.46l24.47-17.68c0.61-0.44 1.42-0.53 2.11-0.22c0.69 0.31 1.17 0.96 1.25 1.71l5.06 45.11c0.34 3.06 3 5.47 6.32 5.74c8.73 0.71 17.93 2.97 26.83 5.16c8.68 2.13 17.66 4.34 25.93 5.01c1.03 0.08 1.85 0.89 1.95 1.92c0.1 1.03-0.56 1.98-1.56 2.25l-77.49 21.24c-0.18 0.05-0.37 0.08-0.56 0.08zm-58.76-21.43l58.78 17.09l66.95-18.35c-5.4-1.01-10.88-2.36-16.25-3.67c-8.74-2.15-17.77-4.37-26.17-5.05c-5.34-0.44-9.63-4.43-10.2-9.51l-4.65-41.48l-20.76 15.01l-3.4 27.01c-0.53 4.2-3.64 7.71-7.92 8.93c-3.24 0.92-6.43 1.91-9.8 2.95c-8.22 2.54-16.66 5.15-26.58 7.08z" />
						</g>
						<g id="&lt;Group&gt;">
							<g id="&lt;Group&gt;">
								<path id="&lt;Path&gt;" class="s6" d="m2867.08 788.96c0 22-13.35 47.72-29.9 47.64c-16.64-0.09-30.2-26.21-30.2-48.42c0-22.22 13.56-31.94 30.2-31.63c16.55 0.3 29.9 10.42 29.9 32.42z" />
								<path id="&lt;Compound Path&gt;" fill-rule="evenodd" class="s2" d="m2837.26 838.72c-0.03 0-0.06 0-0.09 0c-18.2-0.1-32.32-27.25-32.32-50.55c0-10.77 3.17-19.57 9.16-25.46c5.71-5.61 13.74-8.46 23.2-8.3c19.73 0.36 31.99 13.6 31.99 34.55c0 15.79-6.42 32.78-15.97 42.28c-4.92 4.9-10.45 7.49-15.98 7.49zm-0.85-80.06c-7.98 0-14.69 2.44-19.42 7.09c-5.23 5.14-7.89 12.68-7.89 22.42c0 20.9 12.53 46.21 28.08 46.3c0.02 0 0.05 0 0.07 0c4.38 0 8.87-2.16 12.98-6.25c8.66-8.62 14.71-24.76 14.71-39.26c0-18.65-10.4-29.97-27.82-30.29c-0.24-0.01-0.49-0.01-0.73-0.01z" />
							</g>
						</g>
						<path id="&lt;Path&gt;" class="s4" d="m2813.59 754.07c16.55-9.49 36.29-0.31 37.58 0.31c2.91 1.4 14.85 7.39 19.26 20.04c4.75 13.62-1.77 27.69-4.71 27.55c-3.69-0.18-2.11-22.82-12.4-25.84c-2.31-0.68-4.19-0.07-8.59 1.45c-25.37 8.79-30.71 12.3-36.35 10.19c-5.84-2.19-8.24-8.99-8.72-12.85c-1.44-11.59 11.53-19.46 13.94-20.84z" />
					</g>
				</g>
			</g>
			<g id="&lt;Group&gt;">
				<path id="&lt;Path&gt;" class="s10" d="m2162.16 942.43c32.77-37.14 50.24-104.86 52.43-203.16c3.28-147.45-22.94-167.12 19.66-180.22c42.6-13.11 78.64-13.11 88.47 19.66c9.83 32.77 3.28 196.61 45.87 271.97c28.4 50.24-40.41 80.83-206.44 91.75z" />
				<path id="&lt;Path&gt;" class="s11" d="m2506.22 968.64c-69.9-32.77-121.24-69.9-154.01-111.41c-49.15-62.26-65.54-291.63 104.86-334.23c170.39-42.6 203.16 124.52 206.44 170.39c2.18 30.58-21.85 52.43-72.09 65.54l78.64 39.32c80.83 30.58 111.41 109.23 91.75 235.93c-19.66 126.7-104.86 104.86-255.59-65.54z" />
				<path id="&lt;Path&gt;" class="s12" d="m2755.41 1060.89c-31.12 91.09-114.19 60.34-249.2-92.25c-69.9-32.77-121.24-69.9-154.01-111.41c-46.69-59.14-63.79-269.02 80.63-326.44c-18.15 15.03-30.38 32.11-31.48 51.19c-1.83 32.01 29.51 36.44 98.3 124.52c62.34 79.82 73.37 123.24 131.07 147.45c33.78 14.17 44.2 5.25 65.54 16.38c31.62 16.5 60.81 63.26 59.15 190.56z" />
				<path id="&lt;Path&gt;" class="s13" d="m2381.7 912.93c21.85-146.36 96.12-232.65 222.82-258.86c190.05-39.32 183.5-13.11 190.05 16.38c6.55 29.49-22.94 45.87-91.75 58.98c-68.81 13.11-176.95 101.58-81.92 288.36l-239.2-104.86z" />
				<path id="&lt;Path&gt;" class="s14" d="m2794.57 670.45c6.55 29.49-22.94 45.87-91.75 58.98c-68.81 13.11-176.95 101.58-81.92 288.36l-160.94-70.55c11.01-123.44 51.32-174.7 88.85-198.15c59.34-37.07 128.22-14.97 193.33-72.09c13.53-11.87 24.39-25.01 33.19-38.4c15.99 6.37 16.33 18.78 19.23 31.84z" />
				<path id="&lt;Path&gt;" class="s15" d="m2375.15 821.18c75.83 17.3 75.21 64.45 154.01 98.3c70.51 30.29 92.39 1.72 193.33 36.04c39.87 13.56 70.63 24.02 98.3 45.87c112.55 88.91 88.02 298.61 52.43 412.87c-17.07 54.8-51.55 165.48-124.52 180.22c-28.36 5.73-40.12-7.56-144.18-49.15c-105.28-42.08-111.57-35.81-167.12-62.26c-26.73-12.73-100.51-48.49-167.12-111.41c-50.64-47.84-166.54-157.33-157.28-308.02c5.29-86.06 52.29-200.23 147.45-235.93c52.11-19.55 102.21-9.4 114.69-6.55z" />
				<path id="&lt;Path&gt;" class="s16" d="m2814.64 1546.82c-17.47 23.83-39.09 42.26-65.94 47.69c-28.36 5.73-40.12-7.56-144.18-49.15c-105.28-42.08-111.57-35.81-167.12-62.26c-26.73-12.73-100.51-48.49-167.12-111.41c-50.64-47.84-166.54-157.33-157.28-308.02c5.29-86.06 52.29-200.23 147.45-235.93c20.7-7.77 41.08-10.84 58.91-11.55c4.58 21.51 3.73 41.63-6.48 57.42c-20.1 31.07-59.93 19.82-91.75 52.43c-38.84 39.8-44.51 123.15-13.11 176.95c49.27 84.38 156.45 38.96 275.25 131.07c69.97 54.25 66.21 95.92 124.52 167.12c40.16 49.05 103.08 103.84 206.84 145.64z" />
				<path id="&lt;Path&gt;" class="s17" d="m2799.64 1401.81c15.14-55.68 17.12-114.54 3.2-169.55c-3.49-13.78-7.56-27.45-12.65-40.71c-1.15-3.36-2.56-6.62-3.9-9.91c-1.36-3.28-2.61-6.6-4.05-9.84l-4.45-9.65l-2.23-4.82l-2.47-4.7l-4.93-9.39c-1.63-3.14-3.58-6.09-5.35-9.14c-1.83-3.02-3.59-6.08-5.47-9.06l-5.99-8.7c-2.06-2.85-3.82-5.93-6.06-8.63l-6.49-8.3c-4.14-5.7-9.1-10.68-13.75-15.91c-4.52-5.39-9.93-9.86-14.94-14.74c-4.91-5.01-10.69-9-16.09-13.43c-10.86-8.79-22.7-16.3-34.98-23.02c-17.77-9.6-36.64-17.04-56.2-23.63c0.17 24.73 4.48 49.42 13.99 72.28c5.3 12.51 11.86 24.45 19.99 35.45c8.02 11.09 17.71 21.14 27.5 31.75c9.71 10.6 19.61 22.36 25.63 36.36c6.21 13.8 8.95 28.93 8.44 43.73c-0.23 7.4-1.16 14.72-2.59 21.9c-1.6 7.13-3.44 14.19-5.95 21c-4.8 13.69-11.17 26.68-18.36 39.09l-2.88-1.57c6.4-12.66 11.9-25.77 15.79-39.28c2.05-6.72 3.42-13.6 4.55-20.46c0.96-6.89 1.44-13.81 1.26-20.68c-0.3-13.73-3.64-27.23-9.85-39.14c-6.01-12.04-15.36-22.02-25.43-31.83c-10.12-9.8-20.93-19.74-30.35-31.28c-9.52-11.44-17.56-24.23-24.16-37.65c-13.1-26.97-19.54-57.02-20.47-86.86l0.43 0c-0.22-0.07-0.44-0.14-0.66-0.21c-13.88-4.42-28.07-8.91-42.05-15.33c-6.97-3.22-13.89-7.03-20.26-11.87c-6.38-4.8-12.21-10.64-16.84-17.29c-9.37-13.34-13.47-29.22-13.94-44.63c-0.13-5.42 0.22-10.78 0.94-16.05c3.04 2.21 6.24 4.41 9.63 6.58c0.07 2.93 0.24 5.84 0.58 8.72c1.41 13.56 6.4 26.62 14.43 36.76c8.02 10.23 19.6 16.99 32.3 22.2c12.74 5.22 26.61 8.86 40.61 12.79c14 3.93 28.25 8.01 42.35 12.93c14.11 4.92 27.99 10.89 41.35 17.97c6.66 3.58 13.26 7.3 19.6 11.45c6.39 4.06 12.64 8.38 18.46 13.24c5.83 4.83 12.03 9.23 17.32 14.67c5.4 5.29 11.19 10.22 16.03 16.03c4.99 5.67 10.27 11.1 14.68 17.22l6.9 8.96c2.37 2.94 4.28 6.19 6.4 9.3l6.2 9.43c1.94 3.22 3.75 6.5 5.63 9.75c1.82 3.28 3.82 6.46 5.48 9.82l5.02 10.05c13.27 26.87 22.59 55.42 28.86 84.54c12.44 58.62 7.05 120.22-13.51 175.33l-6.24-2z" />
				<path id="&lt;Path&gt;" class="s17" d="m2436.86 936.83c-6.58 5.92-14.54 10.06-22.56 12.84c-8.06 2.79-16.23 4.2-24.23 5.21c-6.67 0.75-13.23 1.19-19.72 1.58c2.98 12.55 3.58 25.68 1.2 38.36c-1.49 8.18-4.21 16.04-7.62 23.3c-3.38 7.28-7.42 13.96-10.94 20.46c-3.57 6.5-6.38 12.9-6.69 19.4c-0.48 6.52 2.09 13.06 6.37 18.61c4.29 5.59 10.08 10.31 16.3 14.33c6.25 4.03 12.98 7.46 19.89 10.53l-1.2 3.05c-7.25-2.55-14.41-5.48-21.3-9.17c-6.85-3.7-13.51-8.19-19.05-14.28c-5.49-5.99-9.72-14.22-9.84-23.06c-0.29-8.85 2.77-17.01 5.91-24.08c3.18-7.18 6.5-13.87 9-20.66c2.53-6.77 4.24-13.6 4.94-20.5c1.24-11.88-0.59-23.91-4.75-35.06c-3.02 0.25-6.03 0.5-9 0.86c-14.91 1.83-29.43 5.16-41.99 12.49c-12.57 7.23-22.95 18.03-30.44 30.86c-3.79 6.39-6.92 13.24-9.5 20.35c-2.71 7.06-4.65 14.44-6.43 21.88c-3.34 14.94-5.18 30.31-6.22 45.77l-3.28-0.05c-0.45-15.64 0.16-31.39 2.56-47.04c1.36-7.8 2.9-15.61 5.29-23.26c2.21-7.69 5.28-15.19 9.05-22.39c3.77-7.19 8.37-14.07 13.89-20.23c5.51-6.17 11.96-11.54 19.01-15.96c14.16-8.92 30.52-13.32 46.34-15.49c15.88-2.25 31.57-2.66 46.45-4.65c14.81-1.87 28.96-5.72 38.96-14.86c10.19-9.05 15.81-22.24 18.58-36.39c1.42-7.1 2.1-14.5 2.56-22.05c0.09-1.89 0.11-3.82 0.17-5.73c3.44 3.23 6.87 6.52 10.39 9.87c0.74 6.51 0.89 13.15 0.21 19.84c-0.86 8.27-2.89 16.67-6.64 24.49c-3.74 7.81-9.04 15.01-15.66 20.83z" />
			</g>
			<g id="&lt;Group&gt;">
				<g id="&lt;Group&gt;">
					<path id="&lt;Path&gt;" class="s18" d="m2096.62 1025.65v484.42c0 25.05-52.17 45.36-116.52 45.36c-64.35 0-116.52-20.31-116.52-45.36v-484.42h233.03z" />
					<g id="&lt;Group&gt;" style="opacity: .5;mix-blend-mode: multiply">
						<path id="&lt;Path&gt;" class="s19" d="m2002.32 1463.74c6.16 31 21.82 58.72 44.4 83.55c-18.88 5.13-41.85 8.15-66.62 8.15c-64.35 0-116.52-20.31-116.52-45.36v-484.42h82.25c-39.3 56.18-42.19 95.98-36.02 123.23c14.78 65.28 84.27 70.67 104.95 147.65c18.18 67.65-26.18 98.12-12.45 167.21z" />
					</g>
					<path id="&lt;Path&gt;" class="s5" d="m2096.62 1418.46c-40.69 14.23-92.74 19.85-156.17 5.61v-354.27h156.17v348.66z" />
				</g>
				<path id="&lt;Path&gt;" class="s6" d="m2094.78 1039.52h-229.35c-5.75 0-10.42-4.66-10.42-10.42v-43.02c0-5.75 4.66-10.42 10.42-10.42h229.35c5.75 0 10.42 4.66 10.42 10.42v43.02c0 5.75-4.66 10.42-10.42 10.42z" />
				<g id="&lt;Group&gt;" style="opacity: .3;mix-blend-mode: multiply">
					<path id="&lt;Path&gt;" class="s2" d="m2087.03 1034.26h-6.76c-4.12 0-7.47-3.34-7.47-7.47v-38.4c0-4.12 3.34-7.47 7.47-7.47h6.76c4.12 0 7.47 3.34 7.47 7.47v38.4c0 4.12-3.34 7.47-7.47 7.47z" />
					<path id="&lt;Path&gt;" class="s2" d="m2057.45 1034.26h-6.76c-4.12 0-7.47-3.34-7.47-7.47v-38.4c0-4.12 3.34-7.47 7.47-7.47h6.76c4.12 0 7.47 3.34 7.47 7.47v38.4c0 4.12-3.34 7.47-7.47 7.47z" />
					<path id="&lt;Path&gt;" class="s2" d="m2027.86 1034.26h-6.76c-4.12 0-7.47-3.34-7.47-7.47v-38.4c0-4.12 3.34-7.47 7.47-7.47h6.76c4.12 0 7.47 3.34 7.47 7.47v38.4c0 4.12-3.34 7.47-7.47 7.47z" />
					<path id="&lt;Path&gt;" class="s2" d="m1998.28 1034.26h-6.76c-4.12 0-7.47-3.34-7.47-7.47v-38.4c0-4.12 3.34-7.47 7.47-7.47h6.76c4.12 0 7.47 3.34 7.47 7.47v38.4c0 4.12-3.34 7.47-7.47 7.47z" />
					<path id="&lt;Path&gt;" class="s2" d="m1968.69 1034.26h-6.76c-4.12 0-7.47-3.34-7.47-7.47v-38.4c0-4.12 3.34-7.47 7.47-7.47h6.76c4.12 0 7.47 3.34 7.47 7.47v38.4c0 4.12-3.34 7.47-7.47 7.47z" />
					<path id="&lt;Path&gt;" class="s2" d="m1939.11 1034.26h-6.76c-4.12 0-7.47-3.34-7.47-7.47v-38.4c0-4.12 3.34-7.47 7.47-7.47h6.76c4.12 0 7.47 3.34 7.47 7.47v38.4c0 4.12-3.34 7.47-7.47 7.47z" />
					<path id="&lt;Path&gt;" class="s2" d="m1909.52 1034.26h-6.76c-4.12 0-7.47-3.34-7.47-7.47v-38.4c0-4.12 3.34-7.47 7.47-7.47h6.76c4.12 0 7.47 3.34 7.47 7.47v38.4c0 4.12-3.34 7.47-7.47 7.47z" />
					<path id="&lt;Path&gt;" class="s2" d="m1879.94 1034.26h-6.76c-4.12 0-7.47-3.34-7.47-7.47v-38.4c0-4.12 3.34-7.47 7.47-7.47h6.76c4.12 0 7.47 3.34 7.47 7.47v38.4c0 4.12-3.34 7.47-7.47 7.47z" />
				</g>
			</g>
			<g id="&lt;Group&gt;">
				<path id="&lt;Path&gt;" class="s20" d="m2321.63 1036.35c78.13 5.93 131.19 73.35 116.89 150.47c-14.3 77.11-90.06 132.13-167.61 123.08c-75.81-8.85-124.92-75.89-111.19-149.92c13.72-74.02 85.53-129.42 161.91-123.62z" />
				<path id="&lt;Path&gt;" class="s21" d="m2316.81 1038.83c76.39 5.88 128.27 72.74 114.29 149.21c-13.98 76.47-88.06 131.03-163.88 122.05c-74.13-8.78-122.13-75.26-108.72-148.67c13.42-73.41 83.62-128.35 158.3-122.6z" />
				<path id="&lt;Path&gt;" class="s22" d="m2309.02 1081.47c52.12 4.35 87.26 50.15 77.74 102.24c-9.52 52.09-59.88 89.55-111.74 83.74c-51.06-5.71-84.38-51.34-75.12-101.99c9.26-50.65 57.79-88.28 109.12-84z" />
				<path id="&lt;Path&gt;" class="s22" d="m2299.74 1132.23c23.54 2.15 39.26 22.93 34.97 46.4c-4.29 23.47-26.93 40.51-50.41 38.06c-23.32-2.43-38.67-23.17-34.43-46.35c4.24-23.18 26.5-40.25 49.87-38.12z" />
				<path id="&lt;Path&gt;" class="s22" d="m2223.47 1263.93c30.13-34.57 9.48-67.99 38.21-101.35c36.56-42.44 96.01-18.57 121.28-57.32c3.18-4.88 5.9-10.89 7.51-18.38c23.52 25.26 34.97 61.25 27.9 99.93c-12.7 69.47-79.96 119.15-148.92 111.11c-22.1-2.58-41.66-10.79-57.55-23.01c4.1-3.23 7.99-6.87 11.57-10.98z" />
			</g>
			<path id="&lt;Path&gt;" class="s23" d="m2675.16 1757.57c-78.29 0-160.47-4.65-237.64-13.85c-43.97-5.24-129.68-17.08-209.72-37.55c-113.93-29.14-170.97-63.75-174.38-105.79c-2.27-27.91 19.56-45.62 49.76-70.13c27.45-22.28 61.61-50 93.68-96.7c43.6-63.5 68.1-140.59 72.8-229.13c0.28-5.21 4.73-9.19 9.94-8.94c5.21 0.28 9.22 4.73 8.94 9.94c-4.89 92.07-30.5 172.43-76.1 238.83c-33.62 48.96-70.45 78.85-97.35 100.68c-29.1 23.62-44.22 36.74-42.83 53.92c2.57 31.62 59.47 63.23 160.22 89c81.94 20.96 172.24 32.92 207.27 37.09c135.34 16.12 286.15 18.16 403.44 5.46c61.93-6.7 111.59-17.03 147.6-30.69c36.17-13.72 56.96-30.51 60.12-48.55c5.07-28.95-33.61-64.46-64.7-92.99c-31.08-28.52-55.63-51.05-44.06-70.87c7.73-13.24 27.62-16.74 62.58-11c24.16 3.96 48.89 11.37 57.02 13.8c70.69 21.17 123.32 55.61 161.75 80.76c28.34 18.55 52.83 34.57 61.59 28.19c5.69-4.14 7.6-16.97 5.76-25.89c-1.99-9.59-8.98-14.85-21.17-23.33c-7.04-4.89-15.02-10.44-22.44-18.09c-19.73-20.32-30.17-50.3-31.03-89.1c-0.12-5.22 4.02-9.55 9.24-9.66c5.21-0.11 9.55 4.02 9.66 9.24c0.75 33.87 9.4 59.56 25.69 76.35c6.15 6.34 13.03 11.12 19.67 15.74c12.43 8.64 25.28 17.57 28.89 35.02c2.56 12.39 1.18 34.6-13.15 45.01c-19.32 14.05-44.68-2.54-83.07-27.66c-37.46-24.51-88.77-58.09-156.82-78.47c-87.92-26.33-97.75-11.53-97.84-11.38c-0.7 1.2 0.05 5.6 7.29 14.51c7.73 9.5 20.11 20.86 33.22 32.9c36.28 33.3 77.39 71.03 70.54 110.18c-10.4 59.39-127.73 84.32-224.32 94.78c-51.64 5.59-109.7 8.36-170.07 8.36z" />
			<g id="&lt;Group&gt;">
				<path id="&lt;Path&gt;" class="s6" d="m2225.8 1300.21c6.56 28.07 5.31 50.57-3.75 67.52l-42.47-10.13c26.61-17.8 38.22-39.33 34.82-64.58l11.4 7.2z" />
				<path id="&lt;Path&gt;" class="s24" d="m2218.2 1297.13c0.48-5.44-2.88-7.84-3.84-9.44c-0.96-1.6-5.24-8.63-1.11-5.12c4.13 3.51 10.18 6.9 10.55 9.44c0.25 1.7-0.39 4.43-1.92 8.19l-3.67-3.08z" />
				<path id="&lt;Path&gt;" class="s25" d="m2170.84 1336.93c-3.42 3.28-11.62 2.61-13.69-1.65c-1.63-3.34 1.02-7.81 1.61-8.8c2.51-4.25 5.11-3.6 9.38-8.49c3.49-3.99 3.62-6.55 5.27-6.5c2.56 0.09 5.57 6.36 4.4 11.3c-0.51 2.17-1.37 2.14-3.46 6.25c-2.57 5.06-1.89 6.33-3.51 7.88z" />
				<path id="&lt;Path&gt;" class="s26" d="m2176.88 1337.47c0.15 4.42 5.08 13.08 10.25 13.71c5.17 0.63 11.31-1.01 8.47 2.32c-2.84 3.33-21.53 9.31-28.35 10.2c-6.82 0.89-14.26-0.96-12.23-2.67c2.04-1.71 12.66-7.67 13.61-13.41c0.69-4.23 0.55-8.95-0.42-14.15c5.68-0.29 8.56 1.04 8.66 3.99z" />
				<g id="&lt;Group&gt;">
					<path id="&lt;Path&gt;" class="s27" d="m2165.37 1337.85c-0.05-0.42 0.11-0.84 0.18-0.97c0.47-0.82 1.69-1.2 3.1-0.94c-2.84-2.25-3.2-3.56-2.99-4.35c0.17-0.63 0.65-0.74 1.76-2.03c1.2-1.4 1.24-1.98 1.96-2.85c1.21-1.47 3.26-2.48 4.67-2.44c4.21 0.13 10.38 10.31 6.23 13.62c-3.09 2.47-6.37 2.94-9.85 1.41c-2.89 0.79-4.89 0.08-5.06-1.46z" />
				</g>
				<path id="&lt;Path&gt;" class="s28" d="m2285.26 1312.15c2.11-0.29 2.84-2.46 2.18-6.48c-0.77-4.74-0.19-6.33 0.93-5.49c0.75 0.56 1.17 1.75 1.28 3.58c2.72-2.32 4.64-5 5.76-8.04c1.68-4.56 2.76-0.72 3.12 1.56c0.36 2.28-2.4 9.36-3.96 10.68c-1.04 0.88-2.32 3.26-3.84 7.13l-5.46-2.94z" />
				<path id="&lt;Path&gt;" class="s29" d="m2171.91 1646c8.65 2.65 13.66 4.13 15.04 4.42c0.12 0.03 0.44 0.1 0.47 0.27c0.09 0.48-2.02 1.43-3.8 1.85c-2.09 0.49-3.76 0.27-4.63 0.16c-7.47-0.88-10.33 0.85-11.52-0.99c-0.41-0.63-0.86-2.05 0.77-5.38l3.67-0.34z" />
				<path id="&lt;Path&gt;" class="s30" d="m2173.01 1638.71c0.01 3.54-0.18 5.96-0.59 7.27c-0.56 1.82-1.9 1.98-4.03 0.48l-1.16-7.42l5.77-0.33z" />
				<path id="&lt;Path&gt;" class="s31" d="m2203.59 1639.56l-3.13 8.55l-4.55-0.72l1.05-7.91l6.62 0.09z" />
				<path id="&lt;Path&gt;" class="s32" d="m2199.04 1652.81c-2.2-2.61-4.17-2.38-4.56-4.17c-0.31-1.41 0.55-3.14 1.86-3.8c1.83-0.92 4.05 0.52 4.55 0.84c3.41 2.21 2.48 5.68 5.69 7.18c0.65 0.3 1.67 0.62 2.75 1.63c0.46 0.43 1.59 1.49 1.33 2.23c-0.31 0.85-2.33 0.82-4.26 0.79c-2.31-0.03-3.46-0.05-4.58-0.74c-1.54-0.96-1.08-1.94-2.78-3.96z" />
				<path id="&lt;Path&gt;" class="s33" d="m2188.5 1475.34c-3.57 33.36-7.14 66.73-10.7 100.09c-0.85 22.15-2.06 43-2.92 65.14c-3.59 0.81-6.99 1.63-9.27-0.27c-1.83-3.59-4.28-8.76-6.64-15.17c-2.71-7.34-9.61-26.58-8.85-50.99c0.68-22.11 6.92-25.04 4.64-44.54c-1.05-8.96-2.7-11.17-5.72-24.09c-2.81-12.02-5.28-26.75-6.13-44.02c15.2 4.62 30.4 9.23 45.6 13.85z" />
				<path id="&lt;Path&gt;" class="s34" d="m2165.61 1640.31c-0.66-1.28-1.39-2.78-2.17-4.45c-6.02-16.21-5.22-27.72-2.46-35.89c2.85-8.45 8.91-16.75 8.6-31.27c-0.24-11.27-4.04-13.39-5.23-25.87c-1.66-17.45 4.8-23.56 4.79-35.62c-0.01-9.94-4.46-24.42-26.03-42.36c-0.07-1.12-0.15-2.22-0.21-3.37c15.2 4.62 30.4 9.23 45.6 13.85c-3.57 33.36-7.14 66.73-10.7 100.09c-0.85 22.15-2.06 43-2.92 65.14c-3.59 0.81-6.99 1.63-9.27-0.27z" />
				<path id="&lt;Path&gt;" class="s35" d="m2207.05 1451.49c34.02 63.14 33.2 95.86 25.02 114.19c-2.32 5.2-10.9 21.96-19.51 47.43c-4.35 12.85-7.25 23.64-9.05 30.85c-2.7-0.94-5.41-1.87-8.11-2.81c-10.74-26.69-8.74-44.63-4.62-56.29c4.25-12.02 10.64-17.09 12-31.19c1.23-12.81-2.7-22.7-8.11-35.9c-4.5-10.97-12.3-26.63-25.98-43.38c12.79-7.63 25.58-15.27 38.37-22.9z" />
				<path id="&lt;Path&gt;" class="s6" d="m2268.33 1381.72c-19.57 13.58-42.73 5.22-50.05 19.83c-2.17 4.33-1.17 6.89 6.59 46.4c3.92 19.95 4.19 24.94 1.64 30.39c-5.42 11.59-19.06 15.63-27.83 18.23c-4.75 1.41-42.63 12.1-60.46-8.64c-6.71-7.81-7.62-16.63-9.12-31.19c-0.82-7.95-0.61-14.4 5.19-51.35c4.54-28.9 5.51-31.95 8.24-35.98c10.4-15.33 29.15-19.49 39.91-21.72c39.04-8.11 57.25 11.76 77.64 0.61c8.46-4.62 18.41-15.19 22.79-42.11c3.6 2.52 7.2 5.04 10.8 7.56c-1.01 42.71-13.91 60.01-25.35 67.95z" />
				<path id="&lt;Path&gt;" class="s36" d="m2180.93 1491.3c3.82-7.83-1.31-15.05 4.32-24.47c7.18-12 20.09-7.93 24.95-16.79c8.31-15.16-24.4-36.31-17.75-60.46c3.17-11.53 14.25-19.87 23.51-23.03c20.55-7.02 33.99 10.87 53.26 5.28c4.57-1.33 9.81-4.07 15.11-9.77c-4.69 9.88-10.5 15.86-15.99 19.67c-19.57 13.58-42.73 5.22-50.05 19.83c-2.17 4.33-1.17 6.89 6.59 46.4c3.92 19.95 4.19 24.94 1.64 30.39c-5.42 11.59-19.06 15.63-27.83 18.23c-2.6 0.77-15.13 4.31-28.86 3.97c6.13-2.49 9.42-5.79 11.11-9.25z" />
			</g>
			<g id="&lt;Group&gt;">
				<g id="&lt;Group&gt;" style="opacity: .3;mix-blend-mode: multiply">
					<path id="&lt;Path&gt;" class="s37" d="m3277.76 865.87c5.87 0.85 7.5 1.41 12.91 3.44v17.73c-5.5-2.59-7.54-4.03-13.74-5c-2.97 7.03-10.05 11.87-18.42 11.72l-15.69-0.53c-11.39-0.2-37.16-3.49-35.44-20.5l-0.07-3.97c-0.18-11.12 25.73-19.88 37.12-19.58l13.35 0.81c9.63 0.26 17.76 7.04 19.98 15.89z" />
					<path id="&lt;Path&gt;" class="s38" d="m3290.59 1306.19c-4.03 3.78-8.21 7.41-12.53 10.88l-54.66 43.81c-0.7 4.65-3.04 9.19-6.96 12.71l-20.58 18.45c-8.18 7.33-17.49 12.86-27.31 16.57l-53.33 2.24c-7.65-2.29-14.98-5.76-21.68-10.45l-21.63-15.14c-4.22-2.96-6.83-7.21-7.73-11.83l-61.09-36.95c-29.18-17.65-53.67-42.27-70.64-71.19c-17.08-29.11-26.45-62.4-27.01-96.12c-0.09-5.13 2.63-9.75 6.85-12.64l-3.58-215.57c-0.71-43.07 33.89-77.87 78.39-81.93c2.16-9.27 11.03-15.99 21.73-15.7l14.73 0.88c12.23 0.33 40.43 9.87 40.62 21.32l0.07 4.08c0.19 11.45-33.64 20.55-45.87 20.33l-8.78-0.58c-9.3-0.16-17.4-5.57-20.98-13.14c-34.72 3.78-61.47 31.17-60.91 64.88l3.56 214.78c4.27 2.59 7.1 6.99 7.18 12.08c0.97 58.47 32.33 112.21 83.09 143.27l60.65 37.11c5.87-1.23 12.08-0.21 17.04 3.31l21.4 15.2c3.91 2.77 8.27 4.66 12.83 5.69c3.48-2.76 7.8-4.57 12.49-4.94c4.41-0.35 8.51 0.61 11.93 2.55c3.9-1.68 7.59-3.99 10.91-6.93l20.8-18.43c4.63-4.1 10.47-5.93 16.05-5.58l55.07-43.73c11.39-9.04 21.52-19.28 30.28-30.4l-0.39 41.12z" />
				</g>
				<g id="&lt;Group&gt;">
					<g id="&lt;Group&gt;">
						<path id="&lt;Path&gt;" class="s39" d="m3024.52 889.93l-8.85-0.58c-12.48-0.22-24.03-9.82-25.76-21.45l-0.61-4.15c-1.72-11.62 7.05-20.78 19.55-20.44l14.84 0.88c12.27 0.33 41.73 9.87 43.42 21.32l0.61 4.08c1.7 11.45-30.94 20.55-43.19 20.33z" />
						<path id="&lt;Path&gt;" class="s6" d="m3193.15 1399.54l-121.9-68.45c-30.51-17.13-57.36-41.02-77.48-69.05c-20.24-28.21-33.56-60.46-38.4-93.14l-33.8-227.95c-6.6-44.52 25.69-80.21 72.09-82.24c3.69-0.16 6.89 2.53 7.43 6.18l0.42 2.83c0.62 4.16-2.43 7.93-6.62 8.28c-35.28 2.94-59.39 30.74-54.3 65.08l33.67 227.11c8.98 60.58 48.85 116.25 105.69 148.37l121.45 68.62l-8.25 14.35z" />
						<path id="&lt;Path&gt;" class="s40" d="m3199.42 1406.9c-3.09 0.27-6.36-0.37-9.33-2.04l-122.06-68.38c-31.5-17.65-59.23-42.27-80.01-71.19c-20.91-29.11-34.67-62.4-39.67-96.12c-1.24-8.38 5.15-15.42 14.24-15.73c9.06-0.31 17.38 6.19 18.62 14.51c8.67 58.47 47.11 112.21 101.95 143.27l121.28 68.69c7.39 4.18 10.17 13.13 6.24 20c-2.36 4.13-6.62 6.58-11.26 6.99z" />
						<path id="&lt;Path&gt;" class="s6" d="m3243.67 1395.2l-12.06-12.52l92.94-82.61c40.81-36.28 59.87-90.93 51.59-146.76l-31.03-209.27c-5.03-33.93-37.11-62.1-71.95-62.81l-2.4-16.2c43.84 1.03 84.07 36.53 90.39 79.13l30.92 208.56c4.43 29.89 1.75 60.15-7.79 87.6c-9.6 27.61-26.19 52.56-48.11 72.16l-92.49 82.71z" />
						<path id="&lt;Path&gt;" class="s41" d="m3239.79 1403.36c-4.57 0.4-9.38-1.25-12.87-4.86c-5.82-6.02-5.73-15.2 0.21-20.46l93.1-82.57c39.53-35.05 57.99-87.92 49.99-141.93c-1.14-7.69 4.17-14.14 11.83-14.4c7.64-0.26 14.73 5.73 15.87 13.37c4.56 30.78 1.82 61.92-7.99 90.2c-9.87 28.44-26.93 54.14-49.49 74.36l-92.33 82.74c-2.35 2.11-5.28 3.28-8.32 3.55z" />
						<path id="&lt;Path&gt;" class="s42" d="m3211.25 872.72l-0.59-3.97c-1.65-11.12 23.11-19.88 34.54-19.58l13.45 0.81c11.24 0.3 21.63 9.42 23.26 20.38l0.58 3.91c1.62 10.96-6.12 19.68-17.35 19.48l-15.76-0.53c-11.42-0.2-37.62-3.49-38.13-20.5z" />
						<path id="&lt;Path&gt;" class="s43" d="m3220.85 1413.88c-18.1 1.62-37.23-2.76-53.96-13.48l-23.63-15.14c-10.23-6.56-13.36-19.46-6.98-28.77c6.36-9.28 19.74-11.43 29.88-4.85l23.4 15.2c15.52 10.08 35.57 8.51 47.67-3.63l18.38-18.43c7.7-7.72 20.77-7.48 29.19 0.48c8.4 7.94 9.06 20.6 1.46 28.33l-18.15 18.45c-12.64 12.86-29.46 20.25-47.26 21.84z" />
						<path id="&lt;Path&gt;" class="s43" d="m3229.51 1465.6c-11.56 1.17-22.32-6.99-23.99-18.23l-8.56-57.73c-1.67-11.24 6.42-21.12 18.01-22.06c11.54-0.93 22.19 7.35 23.84 18.49l8.49 57.23c1.65 11.14-6.29 21.12-17.8 22.29z" />
						<path id="&lt;Path&gt;" class="s44" d="m3231.64 870.41c1.29 6.29-1.3 12.13-5.78 13.05c-4.48 0.92-9.15-3.44-10.43-9.74c-1.29-6.29 1.3-12.13 5.78-13.05c4.48-0.92 9.15 3.44 10.43 9.74z" />
					</g>
				</g>
			</g>
			<path id="&lt;Path&gt;" class="s43" d="m2273.69 1241.75c-11.24-2.93-18.49-14.32-16.14-25.44l12.07-57.1c2.35-11.12 13.37-17.56 24.56-14.41c11.14 3.14 18.25 14.61 15.91 25.63l-11.97 56.61c-2.33 11.02-13.25 17.61-24.44 14.7z" />
			<g id="&lt;Group&gt;">
				<g id="&lt;Group&gt;">
					<path id="&lt;Path&gt;" class="s45" d="m1873.99 1567.81v33.1c0 19.8-51.25 35.85-114.47 35.85c-63.22 0-114.47-16.05-114.47-35.85v-33.1h70.44c13.55-1.77 28.43-2.75 44.03-2.75c15.6 0 30.47 0.98 44.03 2.75h70.44z" />
					<path id="&lt;Path&gt;" class="s6" d="m1873.99 1567.81c0 19.8-51.25 35.85-114.47 35.85c-63.22 0-114.47-16.05-114.47-35.85c0-19.8 51.25-35.85 114.47-35.85c63.22 0 114.47 16.05 114.47 35.85z" />
					<path id="&lt;Path&gt;" class="s46" d="m1759.53 1593.87c-29.61 0-57.31-3.57-78.01-10.05c-21.76-6.82-26.66-14.02-26.66-16.01c0-1.99 4.9-9.19 26.66-16.01c20.7-6.48 48.4-10.05 78.01-10.05c29.61 0 57.31 3.57 78.01 10.05c21.76 6.82 26.66 14.02 26.66 16.01c0 1.99-4.9 9.19-26.66 16.01c-20.7 6.48-48.4 10.05-78.01 10.05z" />
					<path id="&lt;Path&gt;" class="s46" d="m1759.53 1593.86c-29.61 0-57.31-3.83-78.01-10.79c-21.76-7.32-26.66-15.05-26.66-17.18c0-2.13 4.9-9.86 26.66-17.18c20.7-6.96 48.4-10.79 78.01-10.79c29.61 0 57.31 3.83 78.01 10.79c21.76 7.32 26.66 15.05 26.66 17.18c0 2.13-4.9 9.86-26.66 17.18c-20.7 6.96-48.4 10.79-78.01 10.79z" />
					<path id="&lt;Path&gt;" class="s2" d="m1696.39 1579.8c-2.78 0-5.25-1.67-5.77-4.05c-0.58-2.68 1.53-5.26 4.72-5.75l119.22-18.32c3.19-0.49 6.25 1.29 6.84 3.97c0.58 2.68-1.53 5.26-4.72 5.75l-119.22 18.32c-0.36 0.05-0.71 0.08-1.06 0.08z" />
				</g>
				<g id="&lt;Group&gt;">
					<path id="&lt;Path&gt;" class="s47" d="m1873.99 1529.94v33.1c0 19.8-51.25 35.85-114.47 35.85c-63.22 0-114.47-16.05-114.47-35.85v-33.1h70.44c13.55-1.77 28.43-2.75 44.03-2.75c15.6 0 30.47 0.98 44.03 2.75h70.44z" />
					<path id="&lt;Path&gt;" class="s6" d="m1873.99 1529.94c0 19.8-51.25 35.85-114.47 35.85c-63.22 0-114.47-16.05-114.47-35.85c0-19.8 51.25-35.85 114.47-35.85c63.22 0 114.47 16.05 114.47 35.85z" />
					<path id="&lt;Path&gt;" class="s46" d="m1759.53 1556c-29.61 0-57.31-3.57-78.01-10.05c-21.76-6.82-26.66-14.02-26.66-16.01c0-1.99 4.9-9.19 26.66-16.01c20.7-6.48 48.4-10.05 78.01-10.05c29.61 0 57.31 3.57 78.01 10.05c21.76 6.82 26.66 14.02 26.66 16.01c0 1.99-4.9 9.19-26.66 16.01c-20.7 6.48-48.4 10.05-78.01 10.05z" />
					<path id="&lt;Path&gt;" class="s46" d="m1759.53 1556c-29.61 0-57.31-3.83-78.01-10.79c-21.76-7.32-26.66-15.05-26.66-17.18c0-2.13 4.9-9.86 26.66-17.18c20.7-6.96 48.4-10.79 78.01-10.79c29.61 0 57.31 3.83 78.01 10.79c21.76 7.32 26.66 15.05 26.66 17.18c0 2.13-4.9 9.86-26.66 17.18c-20.7 6.96-48.4 10.79-78.01 10.79z" />
					<path id="&lt;Path&gt;" class="s2" d="m1696.39 1541.94c-2.78 0-5.25-1.67-5.77-4.05c-0.58-2.68 1.53-5.26 4.72-5.75l119.22-18.32c3.19-0.49 6.25 1.29 6.84 3.97c0.58 2.68-1.53 5.26-4.72 5.75l-119.22 18.32c-0.36 0.05-0.71 0.08-1.06 0.08z" />
				</g>
				<g id="&lt;Group&gt;">
					<path id="&lt;Path&gt;" class="s48" d="m2021.35 1563.02c8.42 48.8-33.56 90.11-83.16 94.78c-50.49 4.76-99.13-32.17-107.82-82.55c-8.69-50.39 28.1-102.86 78.86-106.02c49.88-3.1 103.7 44.99 112.12 93.79z" />
					<path id="&lt;Path&gt;" class="s6" d="m2024.09 1550.84c8.42 48.8-24.34 92.09-73.95 96.77c-50.49 4.76-99.13-32.17-107.82-82.55c-8.69-50.39 26.09-93.83 76.85-96.99c49.88-3.1 96.5 33.98 104.91 82.78z" />
					<path id="&lt;Path&gt;" class="s46" d="m1941.35 1640.05c-21.13 0-42.1-7.76-59.07-21.85c-17.09-14.2-28.5-33.56-32.11-54.5c-3.79-21.99 1.32-43.2 14.4-59.75c13.14-16.63 32.71-26.55 55.1-27.94c1.77-0.11 3.57-0.17 5.35-0.17c43.77 0 83.84 33.54 91.22 76.35c3.71 21.49-1.19 42.39-13.79 58.86c-12.56 16.42-31.4 26.58-53.06 28.62c-2.66 0.25-5.37 0.38-8.04 0.38z" />
					<path id="&lt;Path&gt;" class="s2" d="m1931.41 1490.6l22.53 130.65c0.78 4.5-2.27 8.47-6.82 8.89c-4.55 0.41-8.87-2.9-9.65-7.41l-22.6-131.03c-0.78-4.51 2.3-8.4 6.87-8.7c4.56-0.3 8.89 3.11 9.66 7.6z" />
					<path id="&lt;Path&gt;" class="s46" d="m1947.77 1630.05c2.22-1.63 3.43-4.41 2.91-7.43l-22.53-130.65c-0.78-4.5-5.1-7.9-9.66-7.6c-0.28 0.02-0.55 0.05-0.81 0.09c1.12-0.83 2.51-1.36 4.08-1.46c4.56-0.3 8.89 3.11 9.66 7.6l22.53 130.65c0.74 4.28-1.99 8.08-6.18 8.8z" />
				</g>
			</g>
			<g id="&lt;Group&gt;">
				<g id="&lt;Group&gt;">
					<path id="&lt;Path&gt;" class="s49" d="m2871.92 1657.25c2.74 1.37 4.12 2.74 4.12 4.12c0 2.06-5.15 7.2-7.2 9.26c-2.06 2.06-4.12 1.03-5.15 0c-1.03-1.03 0-1.03 2.06-3.09c1.37-1.37 3.43-4.8 6.18-10.29z" />
					<path id="&lt;Path&gt;" class="s50" d="m2871.92 1646.96c0.69 6.18 1.37 10.29 2.06 12.35c-0.69 0.69-1.72 1.03-3.09 1.03c-2.06-4.12-3.43-7.2-4.12-9.26l5.15-4.12z" />
					<path id="&lt;Path&gt;" class="s51" d="m2820.46 1678.87c2.06 1.37 2.06 3.09 0 5.15c-3.09 3.09-7.2 5.15-10.29 5.15c-1.2 0-2.41-0.31-3.43-0.69c-1.38-0.51-1.58-2.37-0.36-3.18c1.3-0.87 3.19-2 5.84-3.33c4.12-2.06 6.86-3.09 8.23-3.09z" />
					<path id="&lt;Path&gt;" class="s52" d="m2826.63 1667.54c-3.15 6.93-4.96 11.05-5.43 12.35c-0.74 2.06-2.93 1.03-3.89 0c1.41-6.86 2.46-11.32 3.15-13.38l6.18 1.03z" />
					<path id="&lt;Path&gt;" class="s53" d="m2861.63 1518.3c8.97 17.95-18.02 36.81-8.23 60.73c3.54 8.66 9.23 11.45 15.44 27.79c3.78 9.95 4.85 17.28 5.15 19.56c1.48 11.26 0.25 20.66-1.03 26.76c-2.06 0.69-4.12 1.37-6.18 2.06c-32.55-31.98-44.48-63.38-49.4-81.31c-3.85-14.03-15.49-56.37 2.06-67.93c11.71-7.72 35.47-1.1 42.2 12.35z" />
					<path id="&lt;Path&gt;" class="s54" d="m2883.24 1488.46c-1.24 25.77-6.56 45.34-11.32 58.67c-9.28 25.96-17.5 31.05-21.61 55.58c-2.3 13.7-1.23 21.02-6.18 38.08c-3.05 10.51-8.75 29.48-19.56 30.88c-2.48 0.32-4.66-0.36-6.18-1.03c2.38-17.95 4.47-36.48 6.18-55.58c4.04-45.13 5.49-87.81 5.15-127.63c17.84 0.34 35.68 0.69 53.52 1.03z" />
					<path id="&lt;Path&gt;" class="s6" d="m2769 1406.12c-6.49 4.07-12.83-2.68-29.85-4.12c-24.78-2.1-33.23 10.34-51.46 9.26c-10.87-0.64-26.73-6.18-45.29-30.88c0.34-2.74 0.69-5.49 1.03-8.23c30.98 16.31 49.39 14.6 60.73 9.26c12.95-6.1 18.5-17.8 37.05-23.67c11.69-3.7 22.44-3.16 29.85-2.06c8.17 35.47 3.74 46.8-2.06 50.43z" />
					<path id="&lt;Path&gt;" class="s55" d="m2923.38 1330.98c10.48 6.21 10.05 9.84 17.5 12.35c13.74 4.63 21.16-5.75 32.94-2.06c10.97 3.43 19.17 17.02 19.56 28.82c0.64 19.87-20.96 33.33-40.14 45.29c-12.94 8.06-21.55 13.26-31.91 11.32c-14.07-2.63-14.73-15.32-28.82-18.53c-16.28-3.71-23.24 11.47-40.14 9.26c-12.91-1.68-13.6-11.16-33.96-27.79c-28.37-23.17-46.23-20.47-50.43-36.02c-3.15-11.66 3.33-26.29 13.38-31.91c8.96-5.01 19.07-1.89 31.91 2.06c25.33 7.8 25.86 17.59 39.11 17.5c18.82-0.13 22.19-19.92 43.23-19.56c12.51 0.22 24.72 7.45 27.79 9.26z" />
					<path id="&lt;Path&gt;" class="s6" d="m2875.01 1435.97c10.26 5.92 18.08 4.6 26.76 14.41c6.9 7.79 4.48 11.47 11.32 19.56c11.74 13.88 27.75 13.59 27.79 20.58c0.02 3.61-4.24 3.74-9.26 12.35c-4.35 7.46-2.97 10.47-6.18 12.35c-5.81 3.41-12.39-5.27-20.59-3.09c-6.8 1.81-6.36 8.87-13.38 16.47c-10.92 11.83-30.44 14.73-44.26 11.32c-11.86-2.93-9.88-8.13-23.67-12.35c-17.91-5.48-29.11 0.88-34.99-6.18c-3.58-4.3-1.62-9.28-1.03-18.53c1.86-29.16-13.83-56.72-21.61-69.99c-6.58-11.22-13.24-19.02-13.38-31.91c-0.07-6.28 1.48-7.33 1.03-15.44c-0.7-12.53-4.91-19.25-1.03-24.7c0.37-0.52 1.9-2.56 6.18-4.12c15.68-5.73 45.43 3.27 51.46 5.15c5.39 2.08 14.31 5.61 23.67 13.38c27.11 22.49 17.85 47.26 41.17 60.73z" />
					<path id="&lt;Path&gt;" class="s56" d="m2773.11 1378.33c-2.06-5.49-2.4-13.04-1.03-22.64c10.98-1.37 22.99 0.69 36.02 6.18c-9.61 1.37-21.27 6.86-34.99 16.47z" />
					<path id="&lt;Path&gt;" class="s57" d="m2786.49 1344.36c0.69 4.12 2.06 7.2 4.12 9.26c3.09 3.09 7.2 5.15 9.26 6.18c2.06 1.03-3.09 3.09-8.23 3.09c-5.15 0-16.47-3.09-16.47-6.18c0-3.09 4.12-1.03 6.18-2.06c3.07-1.53 3.07-4.97 0-10.29h5.15z" />
					<g id="&lt;Group&gt;" style="opacity: .1;mix-blend-mode: multiply">
						<path id="&lt;Path&gt;" class="s58" d="m2643.43 1372.15c6.13 3.23 11.76 5.74 16.95 7.67c7.57 15.6 15.18 20.17 21.13 21.15c8.85 1.47 11.4-5.39 32.94-8.23c10.26-1.35 14.74-0.47 22.64-4.12c7.54-3.48 10.33-7.46 13.38-6.18c5.87 2.48 1.44 21.64 5.15 22.64c3.09 0.84 6.22-12.39 13.91-13.46c6.81-0.94 8.85 8.83 17.73 11.82c15.72 5.29 29.2-18.63 43.72-14.18c4.53 1.39 5.46 4.4 16.54 24.82c19.41 35.73 24.05 40.27 29.55 43.49c11.54 6.76 16.36 2.09 23.67 9.26c9.84 9.65 6.13 20.69 13.38 30.88c2.78 3.91 7.28 7.84 14.91 10.6c-1.34 3.65-1.31 5.56-3.59 6.9c-5.81 3.41-12.39-5.27-20.59-3.09c-6.8 1.81-6.36 8.87-13.38 16.47c-10.92 11.83-30.44 14.73-44.26 11.32c-11.86-2.93-9.88-8.13-23.67-12.35c-17.91-5.48-29.11 0.88-34.99-6.18c-3.58-4.3-1.62-9.28-1.03-18.53c1.86-29.16-13.83-56.72-21.61-69.99c-5.95-10.15-11.94-17.5-13.15-28.33c-3.65-1.04-8.06-2.07-13.61-2.54c-24.78-2.1-33.23 10.34-51.46 9.26c-10.87-0.65-26.73-6.18-45.29-30.88c0.34-2.74 0.69-5.49 1.03-8.23z" />
					</g>
					<path id="&lt;Path&gt;" class="s59" d="m2791.72 1346.66c-2.55 4.22-6.16 5.7-10.84 4.44c-6.28-1.69-4.02-17.74 0.66-19.96c1.56-0.74 4.54-0.73 6.63 0.33c1.47 0.75 5.58 5.04 3.9 10.4c1.5-0.58 2.89-0.29 3.3 0.44c0.51 0.93-0.67 2.36-0.94 2.68c-0.93 1.12-2.14 1.52-2.7 1.66z" />
					<path id="&lt;Path&gt;" class="s6" d="m2757.71 1388.09c7.88 14.18 20.48 22.06 37.82 23.63c17.33 1.58 26-11.42 26-39c0.66-0.29 1.51-0.47 2.55-0.56c1.92-0.17 3.93 0.25 6.03 1.24c3.43 1.62 22.51 19.16 17.42 40.68c-4.25 17.96-22.87 28.25-37.82 29.54c-22.41 1.93-45.9-15.57-54.36-43.72l2.36-11.82z" />
				</g>
				<g id="&lt;Group&gt;">
					<path id="&lt;Path&gt;" class="s60" d="m2677.23 1668.78c4.13 3.34 4.36 5.71 4.23 6.87c-0.22 1.86-1.62 2.59-4.98 6.1c-4.55 4.76-3.85 5.4-6.17 7.12c-5.11 3.8-12.34 3.55-12.78 2.25c-0.31-0.91 2.96-1.65 6.68-5.95c3.43-3.98 4.59-7.92 4.91-9.07c0.56-2.1 0.71-3.92 0.74-5.18l7.37-2.14z" />
					<path id="&lt;Path&gt;" class="s61" d="m2673.93 1653.46l3.17 17.23c-1.74 2.53-3.61 2.96-5.57 2.1l-8.13-14.17l10.53-5.15z" />
					<path id="&lt;Path&gt;" class="s62" d="m2692.67 1480.34c7.09 9.39-0.62 26.56-7.97 42.91c-10.73 23.89-20.09 27.74-21.03 44.24c-0.63 11.05 3.58 8.91 4.65 27.32c0.92 15.78-1.72 25.36 1.62 38.12c0.4 1.52 2.34 8.66 3.39 12.51c1.36 4.97 3.51 13.33 4.21 15.86c-4.65 1.94-7.38 4.99-12.03 6.94c-6.89-9.18-18.76-28.45-25.58-46.8c-3.64-9.79-12.33-36.05-9.77-70.51c2.6-34.91 15.45-60.73 23.38-74.1c3.03-0.86 30.2-8.29 39.13 3.53z" />
					<path id="&lt;Path&gt;" class="s63" d="m2710.88 1681.75c2.48 1.58 3.97 5.32 2.84 7.68c-1.11 2.32-3.94 1.59-10.81 3.7c-7.36 2.26-8.81 4.55-14.24 4.54c-2.19 0-6.16-0.38-6.5-1.85c-0.23-1.04 1.45-2.07 7.01-5.8c7.88-5.3 7.8-5.44 9.56-6.26c4.42-2.04 8.86-4.09 12.13-2.01z" />
					<path id="&lt;Path&gt;" class="s64" d="m2708.75 1670.52l1.11 13.8c-3.01 2.09-7.31 0.62-7.74 0l-3.02-13.8h9.65z" />
					<path id="&lt;Path&gt;" class="s65" d="m2684.69 1523.25c-10.73 23.89-20.09 27.74-21.03 44.24c-0.63 11.05 3.58 8.91 4.65 27.32c0.92 15.78-1.72 25.36 1.62 38.12c0.4 1.52 2.34 8.66 3.39 12.51c1.36 4.97 3.51 13.33 4.21 15.86c-4.65 1.94-7.38 4.99-12.03 6.94c-5.63-7.5-14.58-21.74-21.38-36.7c0.05-6.89 1.1-12.59 2.46-17.23c2.27-7.73 5.55-13.07 6.22-23.63c0.91-14.19-4.06-19.41-5.96-31.03c-4.87-29.7 18.8-49.27 11.24-58.13c-1.95-2.28-6.13-4-15.76-2.11c3.87-9.46 7.95-17.09 11.21-22.59c3.03-0.86 30.2-8.29 39.13 3.53c7.09 9.39-0.62 26.56-7.97 42.91z" />
					<path id="&lt;Path&gt;" class="s66" d="m2718.84 1472.98c6.69 20.65 5.28 35.72 2.62 45.8c-3.99 15.12-11.25 20.81-11.15 36.68c0.06 10.31 3.14 10.66 5.4 27.87c0.74 5.59 2.26 17.65 0.81 32.41c-1.64 16.83-5.47 20.15-6.5 36.42c-0.6 9.46 0.13 17.29 0.85 22.47c-0.87 0.77-2.81 2.27-5.72 2.82c-4.1 0.78-7.31-0.88-8.22-1.4c-6.61-25.34-12.6-54.21-16.73-86.22c-5.07-39.32-6.23-74.98-5.46-105.77c14.7-3.7 29.39-7.4 44.09-11.09z" />
					<path id="&lt;Path&gt;" class="s67" d="m2721.46 1518.78c-3.99 15.12-11.25 20.81-11.15 36.68c0.06 10.31 3.14 10.66 5.4 27.87c0.74 5.59 2.26 17.65 0.81 32.41c-1.64 16.83-5.47 20.15-6.5 36.42c-0.6 9.46 0.13 17.29 0.85 22.47c-0.63 0.56-1.85 1.51-3.59 2.2c-7.04-18.43-8.25-33.57-7.51-45.15c1.08-16.91 6.27-26.42 2.84-46.65c-3.34-19.73-10.33-22.75-9.1-37.54c1.36-16.44 10.63-20.45 14.22-38.68c2.6-13.21 0.44-24.84-1.81-32.59c4.3-1.08 8.6-2.16 12.91-3.25c6.69 20.65 5.28 35.72 2.62 45.8z" />
					<path id="&lt;Path&gt;" class="s68" d="m2665.68 1364.06c25-3.29 32.52-1.25 35.31 0.76c6.82 8.6 13.3 19.19 17.66 32.03c7.4 21.81 2.2 31.08 6.31 69.36c3.19 29.69 7.17 32.12 3.25 39.06c-15.42 27.25-94.07 19.48-95.62 7.77c-0.12-0.9 0.17-1.61 0.29-1.86c6.75-14.32 9.68-54.3 7.61-78.3c-1.89-21.88-8.18-33.38-2.34-46.77c2.59-5.93 2.94-9.91 1.05-11.96c5.65-5.17 24.35-9.3 26.48-10.09z" />
					<g id="&lt;Group&gt;">
						<path id="&lt;Path&gt;" class="s69" d="m2674.74 1345.42c3.29 10.34 5.47 16.13 6.54 17.38c1.6 1.87-6.42 6.74-12.57 4.55c-3.76-1.35-3.76-4.89 0-10.63l6.03-11.29z" />
						<g id="&lt;Group&gt;">
							<path id="&lt;Path&gt;" class="s70" d="m2655.23 1353.85c-3.33-1.41-5.97-5.71-5.4-9.73c0.49-3.46 3.24-5.5 4.88-6.72c4.76-3.54 12.42-5.13 17.37-1.74c2.93 2.01 3.41 9.45 3.56 10.75c0.17 1.47-0.52 2.41-0.86 3.79c-0.47 1.92-1.19 4.94-2.31 9.97c-0.79-0.83-1.84-1.82-3.16-2.79c-0.51-0.37-2.51-1.81-4.77-2.66c-4.53-1.7-6.15 0.47-9.31-0.87z" />
							<path id="&lt;Path&gt;" class="s71" d="m2675.19 1354.93c-0.11 4.96-2.48 8.58-7.09 10.86c-6.2 3.07-14.83-9.82-12.66-14.87c0.72-1.68 3.05-3.55 5.46-4.17c1.42-0.37 2.13-0.1 4.45-0.74c2.13-0.59 2.54-1.1 3.37-0.95c1.04 0.18 2.39 1.33 3.49 5.93c0.47-1.81 1.58-3.05 2.82-3.15c0.2-0.02 0.77 0.03 1.24 0.31c1.72 1.05 1.45 3.81-1.07 6.79z" />
						</g>
					</g>
					<path id="&lt;Path&gt;" class="s72" d="m2728.2 1505.27c-5.56 9.83-19.36 15.1-34.8 17.28c4.35-4.22 8.12-9.39 10.54-15.7c6.38-16.62 0.59-33.82-3.55-46.09c-6.32-18.77-13.39-22.44-16.54-33.09c-3.18-10.73 1.9-13.26 18.32-36.04c1.94-2.69 0.5-18.46 2.87-21.35c5.28 7.52 10.13 16.31 13.61 26.57c7.4 21.81 2.2 31.08 6.31 69.36c3.19 29.69 7.17 32.12 3.25 39.06z" />
					<path id="&lt;Path&gt;" class="s73" d="m2698.92 1420.13c-2.44-0.01-8.37-0.37-13.14-4.65c-3.41-3.05-6.42-8.25-4.95-10.23c0.77-1.05 2.22-0.42 8.33-0.32c6.84 0.11 7.81-0.63 9.77 0.32c1.17 0.57 4.4 2.57 5.46 10.23l-5.46 4.65z" />
					<path id="&lt;Path&gt;" class="s74" d="m2669.09 1409.18c1.07-7.66 4.3-9.66 5.46-10.23c1.96-0.95 2.93-0.21 9.77-0.32c6.11-0.1 7.56-0.72 8.33 0.32c1.46 1.98-1.54 7.18-4.95 10.23c-4.78 4.28-10.71 4.64-13.14 4.65l-5.46-4.65z" />
					<path id="&lt;Path&gt;" class="s75" d="m2703.51 1414.51c8.07-1.34 11.43 2.6 17.66 1.26c3.7-0.8 8.85-3.55 8.83-6.31c-0.04-6.22-26.28-4.6-35.31-18.92c-5.32-8.43-2.9-19.59 0-27.75c38.06 7.62 62.33 28.03 61.8 46.66c-0.27 9.6-7.16 19.78-16.39 23.96c-19.5 8.84-44.22-11.43-42.88-16.39c0.42-1.55 3.48-2.05 6.31-2.52z" />
					<path id="&lt;Path&gt;" class="s76" d="m2651.8 1393.07c-7.57 14.29-10.51 21.02-8.83 20.18c1.68-0.84 10.51-2.1 26.48-3.78l5.04 3.78c-30.27 39.1-65.58 30.27-63.06 6.31c1.68-15.97 10.93-31.11 27.75-45.4l12.61 18.92z" />
				</g>
				<path id="&lt;Path&gt;" class="s77" d="m2745.89 1390.45c-2.36-7.09-18.91-9.45-9.68-11.24c6.15-1.19 12.92 1.77 20.32 8.88c0 8.27-8.27 9.45-10.64 2.36z" />
			</g>
			<g id="&lt;Group&gt;">
				<path id="&lt;Path&gt;" class="s78" d="m2088.73 733.89c1.27-4.25 2.83-6.91 4.7-7.97c2.8-1.59 6.74-3.26 7.66-3.97c0.92-0.71 1.86 1.56-0.76 3.17c-1.75 1.07-2.62 1.61-2.62 1.61c-0.07 0.47-0.02 0.84 0.06 1.1c0.36 1.23 1.7 2.11 3.4 2.34c6.49 1.63 9.05 1.8 10.06 1.55c0.15-0.04 0.73-0.2 0.96 0.06c0.37 0.42-0.38 1.68-0.69 2.12c-1.88 2.64-8.08 3.57-12.6 1.27c-1.65-0.84-2.26-1.7-3.5-1.54c-1.96 0.25-3.26 2.78-4.05 4.88l-2.62-4.61z" />
				<path id="&lt;Path&gt;" class="s6" d="m2044.74 767.8c-23.59-3.71-33.02-29.67-34.74-34.38c-8.49-23.35-1.73-52.34 8.09-54.46c4.12-0.89 10.22 2.81 13.28 5.78c11.04 10.71 4.24 21.52 14.27 37.03c3.34 5.16 8.55 13.25 18.05 15.66c13.8 3.5 24.14-5.82 24.85-6.48c1.8 1.73 3.6 3.46 5.4 5.2c-9.32 21.98-30.15 34.65-49.2 31.65z" />
				<path id="&lt;Path&gt;" class="s79" d="m2019.15 707.02c16.97 14.54 13.96 41 24.67 42.77c3.27 0.54 3.19-1.99 11.14-4.22c11.62-3.27 16.87 0.71 25.05-1.8c3.39-1.04 7.84-3.37 12.36-9.12c0.52 0.5 1.04 1 1.56 1.51c-9.32 21.98-30.15 34.65-49.2 31.65c-23.59-3.71-33.02-29.67-34.74-34.38c-3.98-10.96-4.61-23.16-3.13-33.24c4 1.34 8.31 3.43 12.28 6.83z" />
				<path id="&lt;Path&gt;" class="s80" d="m1958.85 976.53c0.72 0.22 3.08 0.96 6.57 2.26c1.89 0.71 2.86 1.11 3.63 2.16c0.14 0.19 1.41 1.96 0.81 2.98c-0.63 1.09-2.84 0.41-10.31-0.65c-4.73-0.67-7.75-0.96-8.18-2.54c-0.06-0.22-0.02-0.52 0.06-1.12c0.18-1.35 0.45-3.42 1.5-4.21c0.69-0.52 1.44-0.27 5.91 1.11z" />
				<path id="&lt;Path&gt;" class="s81" d="m1957.67 968.75l0.41 8.58c-0.23 0.4-2.82 1.54-4.8 0.4l-1.59-8.48l5.98-0.5z" />
				<path id="&lt;Path&gt;" class="s82" d="m2026.29 973.76c1.18 0.24 1.15 0.35 6.67 2.44c3.89 1.48 5.06 1.87 5.06 2.53c0.01 0.94-2.35 1.73-3.67 2.04c-3.29 0.77-4.49-0.41-9.27-0.75c-4.46-0.31-6.07 0.53-7.07-0.72c-1.02-1.27-0.64-3.75 0.64-5.05c1.69-1.72 4.67-1.11 7.63-0.49z" />
				<path id="&lt;Path&gt;" class="s83" d="m2022.03 966.58l2.08 8.07c-0.2 0.42-2.69 1.75-4.75 0.76l-3.25-7.89l5.92-0.95z" />
				<path id="&lt;Path&gt;" class="s84" d="m2007.69 790.97c-0.73 26.83-0.1 57.05 2.99 89.99c3.05 32.55 7.96 62.05 13.57 88.03c-3.09 0.7-6.19 1.4-9.28 2.1c-7.48-7.55-16.82-19.34-20.9-35.63c-2.53-10.11-1.35-15.21-2.72-27.58c-2.18-19.69-7.77-30.19-13.35-46.22c-5.01-14.41-10.77-35.49-13.19-63.46c14.29-2.41 28.59-4.82 42.88-7.23z" />
				<path id="&lt;Path&gt;" class="s85" d="m1973.97 789.75c-3.23 34.03-6.16 68.71-8.74 104.02c-1.93 26.5-3.62 52.66-5.08 78.5c-3.14 0.26-6.28 0.52-9.43 0.78c-2.8-5.74-6.47-14.5-8.77-25.63c-2.8-13.52-1.71-21.44-2.63-35.37c-1.02-15.62-3.27-19.11-6.72-38.91c-6.99-40.18-10.48-60.26-0.42-72.27c3.27-3.9 13.41-13.6 41.78-11.12z" />
				<path id="&lt;Path&gt;" class="s86" d="m1941.17 675.71c7.4-1.77 18.23-3.75 31.4-3.97c18.78-0.31 28.18-0.47 34.64 4.26c14.93 10.92 2.1 34.24 6.03 93.47c1.67 25.17 2.94 23.6-3.43 32.28c-12.94 17.64-47.32 17.76-62.41 1.41c-7.98-8.64-9.03-9.15-8.85-18.63c0.7-37.44 1.52-72.79 2.63-108.82z" />
				<path id="&lt;Path&gt;" class="s6" d="m2019.56 750.43c-3.43 1.21-0.32 14.45 1.38 37.92c2.05 28.31-1.35 24.58 1.21 42.11c1.66 11.34 4.38 21.83 0.08 24.45c-1.54 0.94-2.62 0.04-7.07-0.58c-10.21-1.41-13.7 2.08-23.72 1.45c-2.83-0.18-7.03-0.73-12.13-2.59c1.46-30.2 1.58-54.76 1.42-71.71c-0.26-26.84-0.91-39.79 2.35-59.19c3.62-21.5 10.13-38.53 15.23-49.8c5.11 0.34 14.12 1.61 23.66 7.01c3.86 2.18-0.57 70.28-2.41 70.93z" />
				<path id="&lt;Path&gt;" class="s87" d="m2013.78 819.35c3.1 7.3 6.12 11.25 9.04 15.35c1.57 9.62 3.17 17.92-0.59 20.21c-1.54 0.94-2.62 0.04-7.07-0.58c-10.21-1.41-13.7 2.08-23.72 1.45c-2.83-0.18-7.03-0.73-12.13-2.59c1.46-30.2 1.58-54.76 1.42-71.71c-0.26-26.84-0.91-39.79 2.35-59.19c3.62-21.5 10.13-38.53 15.23-49.8c4.81 0.32 13.09 1.51 22.02 6.16c2.26 3.74 3.95 8.13 3.94 13.02c-0.01 14.51-14.73 18.96-15.78 34.88c-0.86 13.09 8.82 14.32 9.16 29.58c0.34 15.16-9.12 17.27-9.96 34.84c-0.6 12.62 3.75 22.87 6.09 28.38z" />
				<path id="&lt;Path&gt;" class="s6" d="m1973.77 725.2c1.95 8.81 1.46 15.73 0.96 22.12c-2.76 35.21-4.15 52.91-4.94 57.91c-3.84 24.26-5.8 22.66-5.5 32.59c0.16 5.31 0.85 9.89-2.18 13.1c-3.62 3.84-8.51 1.49-20.81 2.58c-11.31 1-11.7 3.39-23.92 4.37c-4.96 0.4-18.52 1.48-19.78-2.41c-0.67-2.08 2.25-5.34 5.01-6.9c4.49-2.54 8.14-0.34 9.7-2.45c1.79-2.41-2.66-5.76-2.57-11.73c0.09-5.94 4.58-7.69 7.62-14.87c2.83-6.69 2.03-12.51 1.8-16.62c-1.03-18.33 7.58-32.46 10.14-56.59c3.97-37.58-11.48-54.78-0.06-66.42c6.18-6.3 15.96-6.6 22.04-6.21c5.8 13.44 10.84 24.04 14.42 31.32c3.86 7.86 6.41 12.65 8.08 20.21z" />
				<g id="&lt;Group&gt;">
					<path id="&lt;Path&gt;" class="s6" d="m1986.97 736.63c-2.36 2.65-4.63 6.18-6.34 10.95c0.25-8.42 0.91-16.14 2.45-25.3c3.62-21.5 10.13-38.53 15.23-49.8c3.13 0.21 7.72 0.77 12.99 2.41c2.04 2.66 3.33 5.89 3.54 9.35c0.53 8.62-5.68 16.56-14.5 18.17c-1.36 0.78-3.14 2.1-3.88 4.23c-1.26 3.61 1.46 6.69 2.24 9.82c1.89 7.63-7.73 15.67-11.73 20.16z" />
				</g>
				<g id="&lt;Group&gt;" style="opacity: .6;mix-blend-mode: multiply">
					<path id="&lt;Path&gt;" class="s88" d="m1974.73 747.33c-2.76 35.21-4.15 52.91-4.94 57.91c-3.84 24.26-5.8 22.66-5.5 32.59c0.16 5.31 0.85 9.89-2.18 13.1c-3.62 3.84-8.51 1.49-20.81 2.58c-10.93 0.97-11.7 3.23-22.76 4.26c0.69-2.02 1.6-4.07 2.83-6.07c7.78-12.63 19.52-10.23 23.84-20.12c5.57-12.77-10.84-23.98-4.84-38.42c3.83-9.21 12.32-9.01 12.92-16.64c0.58-7.33-7.12-9.34-15.05-23.39c-4.66-8.26-9.62-17.04-7.01-25.52c2.98-9.72 13.66-11.78 13.01-19.09c-0.41-4.67-4.94-5.69-6.95-10.08c-2.06-4.51-1.15-11.92 9.01-24.85c1.81-0.06 3.5-0.01 4.98 0.08c5.8 13.44 10.84 24.04 14.42 31.32c3.86 7.86 6.41 12.65 8.08 20.21c1.95 8.81 1.46 15.73 0.96 22.12z" />
				</g>
				<path id="&lt;Path&gt;" class="s6" d="m1936.09 681.11c0.09-1.23 0.45-3.51 2.14-6.33c4.63-1.32 9.47-1.33 13.03-1.11c5.8 13.44 10.84 24.04 14.42 31.32c3.86 7.86 6.41 12.65 8.08 20.21c1.95 8.81 1.46 15.73 0.96 22.12c-0.54 6.92-1.03 13.14-1.47 18.75c-5.09-5.99-6.84-11.26-7.49-15.03c-1.05-6.17 0.91-7.98-1.07-12.79c-3.01-7.36-9.42-7.63-10.02-13.31c-0.48-4.55 3.45-5.94 2.95-10.61c-0.45-4.24-3.99-5.87-8.78-10.49c-3.2-3.08-13.51-13.01-12.76-22.73z" />
				<g id="&lt;Group&gt;">
					<path id="&lt;Path&gt;" class="s89" d="m1985.77 659.94c-2.18 3.25-4.08 7.21-2.64 10.1c2.06 4.16 9.57 3.25 9.9 5.52c0.33 2.25-6.64 6.25-14.15 7c-12.27 1.24-23.8-6.38-23.25-8.46c0.11-0.43 0.67-0.37 5.04-1.28c8.04-1.66 9.49-2.52 10.46-3.57c0.65-0.7 1.17-1.57 1.98-5.01c0.71-2.99 1.5-7.38 1.68-12.93c1.84 3.8 9.15 4.82 10.99 8.62z" />
					<g id="&lt;Group&gt;">
						<path id="&lt;Path&gt;" class="s90" d="m1982.21 658.21c-1.3 1.46-2.2 3.26-2.42 3.71c-0.58 1.19-0.96 2.3-1.21 3.2c-2.71-3.18-4.36-5.08-5.43-6.28c-0.77-0.86-1.61-1.27-2.05-2.39c-0.38-0.99-2.85-6.5-1.51-9.06c2.27-4.31 8.37-6.06 13.12-5.32c1.64 0.26 4.38 0.68 6.04 2.98c1.93 2.67 1.66 6.75-0.2 9.02c-1.76 2.15-3.74 1.21-6.35 4.14z" />
						<path id="&lt;Path&gt;" class="s91" d="m1971.32 657.92c0.23-0.39 0.63-0.63 0.77-0.7c0.92-0.39 2.19 0.07 3.21 1.2c-0.95-3.71-0.41-5.04 0.26-5.57c0.54-0.42 1.02-0.21 2.78-0.59c1.9-0.41 2.31-0.87 3.47-1.15c1.96-0.47 4.33 0 5.49 0.93c3.47 2.8 2.15 15.31-3.46 15.45c-4.18 0.1-7.24-1.6-9.2-5.12c-2.94-1.18-4.17-3.06-3.33-4.46z" />
						<path id="&lt;Path&gt;" class="s92" d="m1975.34 652.09c0.26 0.21-0.6 1.19-0.72 2.61c-0.23 2.76 2.44 6.19 5.28 6.59c1.68 0.23 2.19-0.77 4.99-0.95c1.73-0.11 3.16 0.16 4.06 0.4c0.76 3.07-0.19 6.06-2.27 7.38c-2.24 1.42-4.99 0.4-6.14-0.03c-0.77-0.29-3.23-1.2-4.45-3.55c-1.27-2.44 0.13-3.83-1.37-5.5c-0.75-0.85-1.77-1.24-2.72-2.86c-0.26-0.44-0.42-0.83-0.52-1.08c1.5-1.47 3.49-3.3 3.87-3z" />
						<path id="&lt;Path&gt;" class="s93" d="m1987.32 661.83c0.11 0.22-0.61 1.02-1.49 1.23c-1.25 0.3-2.55-0.64-2.5-0.84c0.01-0.05 0.13-0.08 0.23-0.07c1.39 0.13 2.49 0.01 3.32-0.38c0.2-0.03 0.39-0.03 0.44 0.06z" />
					</g>
				</g>
				<path id="&lt;Path&gt;" class="s6" d="m1951.8 731.61c2.92 6.9-12.36 22.09-28.95 28.93c-3.38 1.39-27.65 11.4-37.85 0.44c-8.43-9.06-2.05-26.83 0.23-33.18c11.19-31.16 39.99-47.73 53-53.01c8.59 24.23 4.88 36.36 2.53 39.59c-2.45 3.37-9.18 10.4-16.28 16.54c-5 4.32-8.08 6.39-7.71 7.11c0.47 0.9 6.18-0.53 28.53-10.33c2.52 0.51 5.5 1.56 6.5 3.91z" />
				<path id="&lt;Path&gt;" class="s94" d="m2009.59 696.78l-16.19 50.18c-0.25 0.79-0.97 1.33-1.79 1.37l-39.26 1.89c-1.39 0.07-2.42-1.28-1.98-2.61l16.5-49.99c0.26-0.78 0.96-1.32 1.78-1.36l38.95-2.09c1.39-0.07 2.42 1.27 2 2.59z" />
				<path id="&lt;Path&gt;" class="s95" d="m1946.32 729.8c9.27-8.76 15.75-13.74 19.43-14.94c5.52-1.8 0.13 12.43-3.14 14.33c-3.27 1.91-4.54 2.63-7.04 2.85c-1.67 0.14-2.5 0.21-2.5 0.21l-3.33 1.61c-2.78-0.44-3.92-1.8-3.42-4.06z" />
				<path id="&lt;Path&gt;" class="s96" d="m1980.02 736.89c1.78-7.93-2.48-14.31 2.14-21.63c4.75-7.53 12.51-5.92 18.37-12.04c1.87-1.95 3.58-4.75 4.53-8.89l2.53-0.14c1.39-0.07 2.42 1.27 2 2.59l-16.19 50.18c-0.25 0.79-0.97 1.33-1.79 1.37l-19.94 0.96c5.24-4.34 7.5-8.62 8.35-12.4z" />
			</g>
			<g id="&lt;Group&gt;">
				<path id="&lt;Path&gt;" class="s97" d="m3410.74 672.16v120.56c0 15.87-11.92 28.54-26.76 28.3l-185.77-3.06l-63.99 53.14l-5.32-1.27v-53.02l-6.71-0.11c-16.93-0.28-30.78-14.15-30.78-30.97v-135.78c0-16.82 13.85-29.42 30.78-28.15l261.79 19.61c14.84 1.11 26.76 14.87 26.76 30.74z" />
				<g id="&lt;Group&gt;">
					<path id="&lt;Path&gt;" class="s98" d="m3415.82 672.16v120.56c0 15.87-11.92 28.54-26.76 28.3l-261.79-4.31c-16.93-0.28-30.78-14.14-30.78-30.97v-135.78c0-16.82 13.85-29.42 30.78-28.15l261.79 19.61c14.84 1.11 26.76 14.87 26.76 30.74z" />
					<path id="&lt;Path&gt;" class="s99" d="m3133.98 790.27l101.83 2.49l-101.83 78.91v-81.4z" />
				</g>
				<g id="&lt;Group&gt;">
					<path id="&lt;Compound Path&gt;" class="s100" d="m3169.04 663.48v110l-25.11-0.75v-110.84l25.11 1.59z" />
					<path id="&lt;Compound Path&gt;" class="s101" d="m3214.81 666.37v41.68l39.27 1.98v-41.18l23.32 1.47v106.38l-23.32-0.7v-44.83l-39.27-1.72v45.38l-24.41-0.73v-109.28l24.41 1.54z" />
					<path id="&lt;Compound Path&gt;" fill-rule="evenodd" class="s102" d="m3297.53 673.01c8.4-0.88 19.28-0.97 30.68-0.25c18.77 1.19 30.82 5.49 40.19 13.59c10.03 8.55 16.3 21.57 16.3 39.72c0 19.67-6.7 33-16.01 41.1c-10.24 8.73-25.94 12.57-45.35 12c-11.73-0.35-20.1-1.38-25.81-2.33v-103.82zm22.85 87.07c1.93 0.54 5.03 0.64 7.84 0.74c20.22 0.87 33.27-10.35 33.27-35.09c0.14-21.51-11.74-33.56-30.92-34.67c-5.02-0.29-8.27-0.01-10.2 0.35v68.66z" />
				</g>
				<g id="&lt;Group&gt;" style="mix-blend-mode: soft-light">
					<path id="&lt;Path&gt;" class="s6" d="m3358.79 820.52l-155.5-2.56l-69.31 53.71v-54.86l-6.71-0.11c-16.93-0.28-30.78-14.14-30.78-30.97v-135.78c0-13.08 8.39-23.62 20.1-27.05c9.17 31.06 23.55 48.04 36.97 57.96c41.05 30.36 80.99 0.5 124.39 32.57c33.46 24.72 25.78 54.83 59.21 89.23c6.84 7.04 14.13 12.93 21.64 17.85z" />
				</g>
			</g>
		</g>
	</g>
</svg>